<svg width="98" height="98" viewBox="0 0 98 98" fill="none" xmlns="http://www.w3.org/2000/svg">
<path d="M49 98C76.062 98 98 76.062 98 49C98 21.938 76.062 0 49 0C21.938 0 0 21.938 0 49C0 76.062 21.938 98 49 98Z" fill="#909091"/>
<path fill-rule="evenodd" clip-rule="evenodd" d="M36 64.3001H31V45.3C29 47 26.8 48.3 24.3 49.1V44.7001C25.7 44.2001 27.1 43.4001 28.6 42.2001C30.2 41.2001 31.2 39.7001 31.8 38.2001H35.8V64.5L36 64.3001ZM47.7001 50C46.4001 49.6 45.4001 48.8 44.7001 47.8C44.2001 46.8 43.9001 45.8 43.9001 44.8C43.9001 42.8 44.6001 41.1 45.9001 39.8C47.4001 38.5 49.3001 37.8 51.9001 37.8C54.3001 37.8 56.3 38.5 57.6 39.8C59 41.1 59.6 42.8 59.6 44.8C59.6 45.8 59.4 47 58.8 47.8C58 48.8 57.1 49.6 56 50.1C57.5 50.8 58.6 51.7 59.3 52.8C60.1 53.8 60.5 55.2 60.5 56.8C60.5 59.1 59.7 61.1 58.1 62.6C56.6 64.1 54.5 64.9001 52.1 64.9001C49.6 64.9001 47.6 64.3001 46.1 62.9001C44.1 61.5001 43.1 59.5001 43.1 56.9001C43.1 55.5001 43.5 54.2001 44.1 52.9001C44.9 51.9001 46.1 50.9001 47.6 50.2001L47.7001 50ZM48.7001 45C48.7001 46 49.0001 46.8001 49.7001 47.4001C50.1001 48.0001 50.9001 48.2001 51.7001 48.2001C52.7001 48.2001 53.5 48.0001 54.1 47.4001C54.7 46.8001 55.1 46 55.1 45C55.1 44 54.7 43.3 54.1 42.8C53.6 42.2 52.8001 41.8 51.9001 41.8C50.9001 41.8 50.1 42.2 49.6 42.8C49 43.3 48.6 44.1 48.6 45H48.7001ZM48.2001 56.3C48.2001 57.7 48.6001 58.8 49.2001 59.6C50.0001 60.3 50.9 60.6 52 60.6C53 60.6 54.0001 60.3 54.7001 59.6C55.3001 58.9 55.7001 57.8001 55.7001 56.4001C55.7001 55.1001 55.3001 54.1001 54.7001 53.4001C53.9001 52.6001 53.1 52.4001 52 52.4001C50.8 52.4001 49.8001 52.7001 49.2001 53.4001C48.6001 54.4001 48.2001 55.4001 48.2001 56.4001V56.3ZM70.6 60.5V53.7001H63.6V49H70.6V42H75.2V49H82.2V53.7001H75.2V60.5H70.6Z" fill="black" stroke="black"/>
</svg>
