<svg width="115" height="42" viewBox="0 0 115 42" fill="none" xmlns="http://www.w3.org/2000/svg">
<path fill-rule="evenodd" clip-rule="evenodd" d="M20.2 27.6C20.8 27.9 21.4 28.1 22.1 28.1C22.9 28.1 23.7 27.8 24.4 27.2C25 26.7 25.4 25.9 25.4 25.2C25.4 24.6 25.2 24.2 24.9 23.8C24.5 23.3 24 23 23.5 22.8L22.5 22.2C21.7 21.9 21.4 21.4 21.4 20.8C21.4 20.4 21.4999 20 21.7999 19.8C22.0999 19.5 22.4999 19.4 22.7999 19.4C23.5999 19.4 24.3 19.8 24.6 20.4H24.7L24.9 19.7L25.2 19.3C24.585 18.8745 23.8469 18.6636 23.1 18.7C22.3 18.7 21.4999 18.9 20.7999 19.4C20.2999 19.9 20 20.6 20 21.3C20 22.3 20.5 23.1 21.6 23.6L22.7999 24.2C23.0667 24.2849 23.3065 24.4384 23.4954 24.645C23.6842 24.8516 23.8156 25.1042 23.8763 25.3775C23.9371 25.6507 23.925 25.9352 23.8414 26.2023C23.7578 26.4695 23.6056 26.7101 23.4 26.9C23.1 27.2 22.6 27.4 22.1 27.4C21.3 27.4 20.7 26.9 20.2 26.1C20.1351 26.4429 20.0346 26.778 19.9 27.1L19.7999 27.4L20.2 27.6V27.6ZM28.9 21.6C29.084 21.5818 29.2698 21.6065 29.4428 21.672C29.6157 21.7375 29.7712 21.8421 29.8971 21.9777C30.0229 22.1132 30.1158 22.276 30.1683 22.4533C30.2208 22.6307 30.2317 22.8178 30.2 23C30.2 23.2 30.2 23.3 30 23.5L29.2 23.8L28.7 23.9L27.2999 24.3C26.6999 24.7 26.2999 25.3 26.2999 26.1C26.2999 26.6 26.3999 27.1 26.7999 27.5C27.1999 27.9 27.7999 28.1 28.2999 28.1C29.0999 28.1 29.7999 27.7 30.2999 27.1C30.2999 27.7 30.9 28.1 31.4 28.1L32 28L32.5999 27.7V27.3H32.2C32.0567 27.302 31.9175 27.2527 31.8075 27.161C31.6974 27.0693 31.6238 26.9412 31.6 26.8V22.8C31.6 22.3 31.4 21.8 31 21.4C30.5 21.1 29.9999 20.9 29.2999 20.9C28.8999 20.9 28.4 20.9 28 21.1L26.7999 21.9C26.8842 22.1279 26.9511 22.3619 27 22.6H27.2C27.5 22.1 28.2 21.7 28.9 21.6ZM30 26.5C30 26.7 29.8 26.9 29.5 27C29.3 27.2 29.0999 27.2 28.7999 27.2C28.6527 27.2122 28.5046 27.1916 28.3663 27.1397C28.228 27.0879 28.1029 27.006 28 26.9C27.8265 26.6352 27.7259 26.3294 27.7084 26.0134C27.6908 25.6974 27.7569 25.3823 27.9 25.1C27.9 24.9 28.0999 24.8 28.2999 24.7C28.5999 24.5 28.8 24.4 29.1 24.4C29.4467 24.3031 29.782 24.169 30.1 24V26.5H30ZM33.2999 21.7H33.5999V23.5C33.5727 24.5002 33.5394 25.5002 33.5 26.5V27.9H35C35.06 26.9009 35.06 25.8991 35 24.9V21.7H35.7999L36.4 21.8V21C36.0337 21.0377 35.667 21.071 35.2999 21.1H34.9C34.7 20.8 34.5999 20.4 34.5999 20.1C34.5999 19.8 34.6 19.5 34.9 19.3C35 19.1 35.3 19 35.5 19C35.8 19 36.0999 19.2 36.2999 19.4H36.5V18.9C36.4789 18.5336 36.4789 18.1664 36.5 17.8H36.2999C35.4999 17.8 34.7999 18.1 34.2999 18.6C33.7999 19.2 33.4999 20 33.5999 20.8V21.1C33.2343 21.1382 32.8656 21.1382 32.5 21.1V21.8H33.2999V21.7ZM42.7999 24.3V24C42.8999 23.1 42.5999 22.3 42.0999 21.7C41.4999 21.1 40.7 20.7 39.9 20.8C39 20.8 38.1 21.1 37.5 21.8C36.9 22.5 36.5 23.4 36.5 24.4C36.4535 24.8843 36.5147 25.3729 36.6792 25.8308C36.8437 26.2887 37.1074 26.7045 37.4514 27.0485C37.7955 27.3926 38.2113 27.6563 38.6692 27.8208C39.1271 27.9852 39.6156 28.0465 40.0999 28C40.5999 28 41 28 41.4 27.8C41.7 27.8 42.1 27.5 42.4 27.3L42.7 26.3L42.0999 26.7C41.5584 27.0315 40.9349 27.2047 40.2999 27.2C39.9977 27.2119 39.6967 27.1551 39.4195 27.0339C39.1424 26.9126 38.8963 26.7301 38.7 26.5C38.3 26 38.0999 25.4 38.0999 24.7V24.5H40.2999C41.1332 24.5122 41.9667 24.5122 42.7999 24.5V24.2V24.3ZM41 22.2C41.3 22.7 41.4 23.2 41.4 23.9H38.0999C38.0999 23.3 38.2999 22.7 38.5999 22.2C38.8999 21.8 39.4 21.5 39.9 21.5C40.3 21.5 40.8 21.8 40.9 22.2H41ZM45.2 27.9H49V27.7C48.98 27.4671 48.98 27.2329 49 27C48.4327 27.0231 47.866 27.0564 47.2999 27.1H45.7999V23C45.7941 22.1 45.7941 21.2 45.7999 20.3L45.9 18.8C45.7 18.8067 45.4999 18.8067 45.2999 18.8H45C44.7 18.8095 44.3999 18.8095 44.0999 18.8C44.0905 19.7344 44.1239 20.6687 44.2 21.6V23C44.2083 24.1667 44.2083 25.3333 44.2 26.5L44.0999 27.8H45.2V27.9ZM52.5 21.7C52.6745 21.6847 52.8503 21.7079 53.0149 21.7678C53.1796 21.8277 53.3291 21.923 53.453 22.0469C53.5769 22.1708 53.6722 22.3203 53.7321 22.485C53.7921 22.6497 53.8152 22.8254 53.7999 23C53.7999 23.2 53.7999 23.3 53.5999 23.5L52.9 23.8L52.2999 23.9L51 24.3C50.3 24.7 49.9 25.3 50 26.1C49.9 26.6 50.1 27.1 50.5 27.5C50.9 27.9 51.4 28.1 51.9 28.1C52.7 28.1 53.4 27.7 53.9 27.1C54 27.7 54.4999 28.1 55.0999 28.1L55.7 28L56.2999 27.7V27.3H55.9C55.7567 27.302 55.6175 27.2527 55.5075 27.161C55.3974 27.0693 55.3238 26.9412 55.2999 26.8V22.8C55.2999 22.3 54.9999 21.8 54.5999 21.4C54.0999 21.1 53.6 20.9 53 20.9C52.5 20.9 52.1 20.9 51.7 21.1L50.5 21.9C50.5854 22.1275 50.6523 22.3616 50.7 22.6H50.7999C51.1999 22.1 51.8 21.7 52.5 21.6V21.7ZM53.7 26.5L53.2 27C53 27.2 52.7 27.2 52.5 27.2C52.3527 27.2122 52.2046 27.1916 52.0663 27.1397C51.928 27.0879 51.8029 27.006 51.7 26.9C51.4 26.6 51.3 26.2 51.4 25.9L51.5 25.1L52 24.7C52.2 24.5 52.4999 24.4 52.7999 24.4C53.1467 24.3031 53.482 24.169 53.7999 24V25.7L53.7 26.5ZM57.2 27.9H57.5L58.0999 27L58.7 27.6C59.3 27.9 59.9 28.1 60.5 28.1C61.3 28.1 62.1999 27.7 62.7999 27.1C63.3851 26.3267 63.6694 25.3672 63.5999 24.4C63.5999 23.4 63.3999 22.6 62.7999 21.9C62.2999 21.2 61.5999 20.9 60.7999 20.9C60.2999 20.9 59.8 21 59.5 21.2C59.1 21.5 58.7 21.9 58.5 22.3V21.3C58.4995 20.6333 58.4995 19.9667 58.5 19.3V17.8H58.2C57.8015 17.8502 57.3984 17.8502 57 17.8C56.9613 18.7996 56.9613 19.8004 57 20.8L57.0999 22.7C57.1327 23.8664 57.1327 25.0336 57.0999 26.2L57 28H57.2V27.9ZM61.5999 22.5C61.8999 23.1 62.0999 23.8 62.0999 24.5C62.0999 25.3 61.8999 26 61.5999 26.6C61.2999 27.1 60.8 27.4 60.2 27.4C59.7 27.4 59.2 27.1 58.9 26.7C58.6 26.1 58.4 25.4 58.4 24.7V24.5C58.4 23.8 58.6 23.1 59 22.5C59.2 22 59.6999 21.7 60.2999 21.7C60.7999 21.7 61.2999 22 61.5999 22.5V22.5ZM70.6 24.3V24C70.6 23.1 70.4 22.3 69.8 21.7C69.3 21.1 68.5 20.7 67.7 20.8C66.7 20.8 65.9 21.1 65.3 21.8C64.7 22.5 64.3 23.4 64.3 24.4C64.2535 24.8843 64.3147 25.3729 64.4792 25.8308C64.6437 26.2887 64.9074 26.7045 65.2514 27.0485C65.5955 27.3926 66.0113 27.6563 66.4692 27.8208C66.9271 27.9852 67.4156 28.0465 67.9 28C68.4 28 68.8 28 69.2 27.8C69.5 27.8 69.9 27.5 70.2 27.3L70.5 26.3L69.9 26.7C69.3584 27.0315 68.7349 27.2047 68.1 27.2C67.7977 27.2119 67.4967 27.1551 67.2195 27.0339C66.9424 26.9126 66.6963 26.7301 66.5 26.5C66.1 26 65.9 25.4 65.9 24.7V24.5H68.1C68.9332 24.5122 69.7667 24.5122 70.6 24.5V24.2V24.3ZM68.8 22.2C69.1 22.7 69.2 23.2 69.2 23.9H65.9C65.9 23.3 66 22.7 66.4 22.2C66.7 21.8 67.2 21.5 67.7 21.5C68.1 21.5 68.6 21.8 68.7 22.2H68.8ZM72.8 27.9H73.5C73.5426 26.9005 73.5426 25.8995 73.5 24.9L73.4 22.9C73.3641 21.7003 73.3641 20.4997 73.4 19.3L73.5 17.8C72.9691 17.8727 72.4308 17.8727 71.9 17.8C71.8891 18.801 71.9225 19.802 72 20.8V22.8C72.022 24.0332 72.022 25.2668 72 26.5V27.9H72.7H72.8ZM75.9 27.9H76.7V24C76.686 23 76.686 22 76.7 21C76.1693 21.0752 75.6306 21.0752 75.1 21C75.0894 22.001 75.1227 23.0019 75.2 24V24.7C75.252 25.766 75.252 26.834 75.2 27.9H75.9ZM75.3 19.9L75.9 20.1C76.4 20.1 76.9 19.7 76.9 19.2C76.9 18.7 76.4 18.3 75.9 18.3C75.4 18.3 75 18.7 75 19.2C75 19.4 75.1 19.7 75.3 19.8V19.9ZM79.1 27.9H79.9C79.9453 26.9339 79.9453 25.9661 79.9 25V24C79.9 23.4 80 22.9 80.3 22.4C80.6 22 81.1 21.8 81.6 21.8C81.9 21.8 82.1 21.8 82.4 22C82.6 22 82.8 22.2 82.9 22.4C83 22.8 83.1 23.1 83 23.4V24.8C83.003 25.8333 83.003 26.8667 83 27.9H84.5C84.5121 26.9334 84.5121 25.9666 84.5 25V23.2C84.5 22.5 84.3 21.9 83.8 21.5C83.4 21.1 82.8 20.9 82.2 20.9C81.7963 20.8922 81.3964 20.9785 81.0319 21.1521C80.6674 21.3256 80.3483 21.5817 80.1 21.9L79.9 22.2V21.1C79.4012 21.1501 78.8987 21.1501 78.4 21.1C78.3788 22.0666 78.3788 23.0334 78.4 24V24.7C78.4291 25.7665 78.4291 26.8335 78.4 27.9H79.1V27.9ZM85.6 28.2C85.4 28.5 85.3 28.9 85.3 29.2C85.3 29.9 85.6 30.4 86.1 30.7C86.8 31 87.6 31.2 88.4 31.2C89.4 31.2 90.2 31 91 30.5C91.6 30.1 92 29.5 92 28.7C92 28.1 91.7 27.5 91.3 27.2C90.8 26.8 90.1 26.6 89.4 26.6H88.2L87.5 26.5C87.4119 26.4773 87.3343 26.4254 87.2798 26.3526C87.2252 26.2799 87.1971 26.1908 87.2 26.1C87.2 25.8 87.4 25.6 87.9 25.5C88.0995 25.5182 88.3004 25.5182 88.5 25.5C89.217 25.5459 89.9266 25.333 90.5 24.9C90.9 24.5 91.2 23.9 91.2 23.3C91.2 22.7 91 22.1 90.5 21.7H90.8C91.2 21.7 91.6 21.7 91.9 21.9V21H89.4C89.0335 20.9835 88.6664 20.9835 88.3 21C87.6 20.9 86.9 21.1 86.3 21.6C85.8 22 85.6 22.6 85.6 23.3C85.6 24.3 86.1 24.9 87.1 25.3C86.3 25.6 85.9 26 85.9 26.5C85.9 27 86.2 27.3 86.8 27.5L85.6 28.2V28.2ZM89 27.7L89.6 27.8C89.9 27.8 90.2 28 90.4 28.2L90.7 29.1C90.7 29.5 90.4 29.9 90.1 30.1C89.6 30.5 89 30.6 88.4 30.6C87.9 30.6 87.4 30.5 86.9 30.2C86.6 30 86.3 29.6 86.3 29.2L86.6 28.3C86.8 28 87.1 27.8 87.4 27.7H89ZM89.4 22C89.7 22.4 89.8 22.8 89.8 23.3C89.8 23.7 89.7 24.2 89.4 24.5C89.2 24.8 88.8 25 88.4 24.9C88 24.9 87.6 24.8 87.4 24.5C87.1 24.1 87 23.7 87 23.3C87 22.8 87.1 22.3 87.4 22C87.6 21.7 88 21.5 88.4 21.5C88.8 21.5 89.2 21.7 89.4 22ZM93.1 27.8C93.4 28.1 93.8 28.2 94.1 28C94.2784 27.9081 94.4211 27.7591 94.5051 27.5767C94.5892 27.3944 94.6099 27.1892 94.5639 26.9938C94.5179 26.7983 94.4079 26.6239 94.2513 26.4982C94.0948 26.3725 93.9007 26.3027 93.7 26.3C93.5 26.3 93.2 26.3 93.1 26.6C92.9 26.7 92.8 27 92.8 27.2C92.8 27.4 92.9 27.7 93.1 27.8V27.8ZM97.6 27C98.3245 27.6197 99.2465 27.9603 100.2 27.9603C101.153 27.9603 102.075 27.6197 102.8 27C103.5 26.3 103.8 25.4 103.8 24.5C103.8 23.5 103.5 22.5 102.8 21.9C102.075 21.2803 101.153 20.9397 100.2 20.9397C99.2465 20.9397 98.3245 21.2803 97.6 21.9C96.9 22.6 96.6 23.5 96.6 24.5C96.6 25.5 96.9 26.3 97.6 27ZM102.3 24.6C102.3 25.3 102.1 26.1 101.7 26.6C101.4 27.2 100.7 27.5 100.2 27.4C99.6 27.4 99 27.2 98.7 26.7C98.3 26 98.1 25.3 98.1 24.5C98.1 23.7 98.3 23 98.7 22.3C99 21.8 99.6 21.5 100.2 21.6C101.6 21.6 102.2 22.6 102.2 24.6H102.3ZM105.3 27.9H106.2C106.218 27.0321 106.185 26.1639 106.1 25.3V23.8C106.1 23.6 106.2 23.3 106.4 23.1C106.4 22.8 106.6 22.7 106.8 22.5L107.5 22.3L108.1 22.5H108.3V21H108C107.722 21.0104 107.45 21.0785 107.2 21.2C106.817 21.3554 106.499 21.6379 106.3 22L106.1 22.5V22C106.078 21.667 106.078 21.333 106.1 21C105.602 21.0673 105.098 21.0673 104.6 21C104.597 22.0675 104.63 23.1348 104.7 24.2V26.4L104.6 27.8H105.4L105.3 27.9ZM108.7 28.2C108.4 28.5 108.3 28.9 108.3 29.2C108.3 29.9 108.6 30.4 109.2 30.7C109.9 31 110.7 31.2 111.5 31.2C112.4 31.2 113.3 31 114 30.5C114.6 30.1 115 29.5 115 28.7C115 28.1 114.8 27.5 114.3 27.2C113.8 26.8 113.1 26.6 112.5 26.6H111.3L110.5 26.5C110.412 26.4773 110.334 26.4254 110.28 26.3526C110.225 26.2799 110.197 26.1908 110.2 26.1C110.2 25.8 110.5 25.6 111 25.5C111.166 25.5126 111.334 25.5126 111.5 25.5C112.217 25.5459 112.927 25.333 113.5 24.9C114 24.5 114.3 23.9 114.3 23.3C114.3 22.7 114 22.1 113.5 21.7H113.8C114.2 21.7 114.6 21.7 115 21.9V21H112.5C112.102 20.9469 111.701 20.9136 111.3 20.9C110.6 20.9 109.9 21.1 109.3 21.5C108.9 22 108.6 22.6 108.6 23.3C108.6 24.3 109.1 24.9 110.2 25.3C109.3 25.6 108.9 26 108.9 26.5C108.9 27 109.2 27.3 109.8 27.5L108.7 28.2V28.2ZM112 27.7L112.6 27.8C112.9 27.8 113.2 28 113.4 28.2L113.7 29.1C113.7 29.5 113.5 29.9 113.1 30.1C112.6 30.5 112.1 30.6 111.5 30.6C110.9 30.6 110.5 30.5 110 30.2C109.6 30 109.4 29.6 109.4 29.2C109.4 28.9 109.4 28.6 109.7 28.3C109.9 28 110.2 27.8 110.5 27.7H112ZM6.49995 18H4.89995C4.49995 18 4.19995 18.3 4.19995 18.7V28.3C4.19995 28.7 4.49995 29 4.89995 29H14.6C15 29 15.3 28.7 15.3 28.3V20L14 23V27.6H5.59995V19.4H7.39995L6.39995 18H6.49995ZM112.5 22C112.7 22.5 112.9 23 112.8 23.4C112.8 23.8 112.8 24.3 112.5 24.6C112.2 24.9 111.9 25.1 111.5 25C111.1 25 110.7 24.9 110.5 24.6C110.2 24.3 110 23.8 110.1 23.4C110.1 22.9 110.1 22.4 110.4 22.1C110.7 21.8 111.1 21.6 111.4 21.6C111.9 21.6 112.2 21.8 112.4 22.1L112.5 22ZM8.39995 37.3L8.09995 36.9C7.79995 36.7 7.49995 36.6 7.09995 36.6C6.89995 36.6 6.59995 36.6 6.39995 36.8L5.89995 37.3C5.76688 37.4817 5.66546 37.6845 5.59995 37.9C5.4687 38.4253 5.4687 38.9747 5.59995 39.5L5.89995 40.1C6.03788 40.3189 6.23007 40.4984 6.45786 40.621C6.68565 40.7437 6.94129 40.8053 7.19995 40.8C7.49995 40.8 7.89995 40.7 8.19995 40.4L8.59995 39.4H9.89995C9.89995 39.8 9.79995 40.1 9.59995 40.4C9.32379 41.0016 8.82032 41.4691 8.19995 41.7C7.88047 41.8232 7.54226 41.8909 7.19995 41.9C6.69995 41.9 6.29995 41.9 5.89995 41.7C5.52305 41.5544 5.18364 41.3261 4.90672 41.0319C4.62981 40.7376 4.42245 40.385 4.29995 40L4.09995 38.7L4.29995 37.4L4.89995 36.4L5.89995 35.7C6.59995 35.4 7.39995 35.4 8.09995 35.7L8.99995 36C9.24544 36.2111 9.44359 36.4716 9.58145 36.7646C9.71931 37.0575 9.79377 37.3763 9.79995 37.7H8.49995L8.39995 37.3V37.3ZM11.8 37.4C11.9 37.1 12.1 36.7 12.4 36.4L13.4 35.7C14.2 35.4 15.1 35.4 15.9 35.7L16.9 36.4L17.5 37.4C17.8057 38.2397 17.8057 39.1603 17.5 40C17.3881 40.3752 17.196 40.7215 16.937 41.0151C16.678 41.3086 16.3583 41.5423 16 41.7C15 42 14.2 42 13.4 41.7C13.0231 41.5544 12.6836 41.3261 12.4067 41.0319C12.1298 40.7376 11.9225 40.385 11.8 40L11.6 38.7C11.6 38.3 11.6 37.8 11.8 37.4V37.4ZM13 39.4L13.3 40.1L13.8 40.6C14.3 40.8 14.9 40.8 15.4 40.6L15.9 40.1L16.2 39.5C16.375 38.7548 16.2682 37.9711 15.9 37.3L15.4 36.8C14.9 36.5 14.4 36.5 13.8 36.8L13.3 37.3C13.1669 37.4817 13.0655 37.6845 13 37.9C12.8687 38.4253 12.8687 38.9747 13 39.5V39.4ZM21.5 35.6L23 39.8L24.4 35.6H26.2999V41.8H25V37.4L23.5 41.8H22.5L20.9 37.5V41.8H19.6V35.6H21.6H21.5ZM31.2999 35.6C31.5999 35.6 31.9999 35.6 32.2999 35.8L33 36.2C33.1 36.4 33.2999 36.6 33.2999 36.9C33.4999 37.3 33.4999 37.9 33.2999 38.3C33.2148 38.5287 33.0814 38.7364 32.9089 38.9089C32.7363 39.0815 32.5286 39.2149 32.2999 39.3C31.9999 39.5 31.5999 39.6 31.2999 39.6H30V41.8H28.6V35.6H31.4H31.2999ZM30.9 38.6L31.4 38.5C31.5 38.5 31.6999 38.5 31.7999 38.3L32 38.1C32.2 37.8 32.2 37.4 32 37.1L31.7999 36.8C31.675 36.7392 31.5388 36.7052 31.4 36.7H29.9V38.5H30.9V38.6ZM36.7 35.6V40.6H39.7V41.8H35.2999V35.6H36.7ZM42.9 35.6V41.8H41.5V35.6H43H42.9ZM48.2 35.6L50.5 41.8H49.0999L48.5999 40.4H46.2999L45.7999 41.8H44.5L46.7999 35.6H48.2ZM48.2 39.4L47.5 37.1L46.7 39.4H48.2999H48.2ZM53.4 35.6L56 39.7V35.7H57.2999V41.7H55.9L53.4 37.7V41.7H52V35.7H53.2999L53.4 35.6ZM59 36.8V35.6H64.0999V36.8H62.2999V41.8H60.9V36.8H59V36.8ZM73.8 41.8L72.8 37.6L71.8 41.8H70.4L68.7 35.6H70.1L71.1 39.8L72.1 35.6H73.4L74.4 39.9H74.5L75.5 35.6H77L75.3 41.8H73.9H73.8ZM83.1 35.6V36.8H80V38H83V39H80V40.5H83.3V41.7H78.6V35.5H83.2L83.1 35.6ZM88.1 35.6L88.9 35.7L89.5 36C89.7 36 89.8 36.2 89.9 36.4C90 36.6 90.1 36.9 90 37.1C90 37.4 90 37.7 89.8 37.9C89.7 38.1 89.5 38.3 89.2 38.4C89.6 38.5 89.9 38.7 90.1 39C90.4 39.5 90.4 40.2 90.1 40.8C90.1 41 89.9 41.2 89.7 41.3L89 41.7H85.2V35.7H88L88.1 35.6ZM87.9 38.1C88.1 38.1 88.3 38.1 88.5 37.9C88.7 37.8 88.8 37.6 88.7 37.4V37L88.4 36.8L88.1 36.7C88.0001 36.6925 87.8998 36.6925 87.8 36.7H86.5V38H88L87.9 38.1ZM87.9 40.7H88.4C88.4 40.7 88.6 40.7 88.7 40.5L88.9 40.3V39.9C89 39.6 88.9 39.4 88.7 39.2L88 39H86.5V40.7H88H87.9ZM93.3 40.2L93.6 40.6L94.1 40.8C94.3961 40.8684 94.7039 40.8684 95 40.8H95.4L95.7 40.5L95.8 40.1C95.8 39.9 95.8 39.8 95.6 39.7L95.2 39.4L94.6 39.2C94.1627 39.1179 93.729 39.0178 93.3 38.9L92.7 38.5C92.5 38.5 92.4 38.2 92.3 38L92.1 37.3C92.1 37 92.1 36.8 92.3 36.5L92.9 35.9L93.6 35.6L94.4 35.5H95.4L96.2 35.9C96.4428 36.0854 96.6345 36.3295 96.757 36.6094C96.8795 36.8893 96.9287 37.1958 96.9 37.5H95.6L95.5 37L95.2 36.7L94.8 36.6C94.5353 36.5533 94.2646 36.5533 94 36.6H93.7L93.5 36.9V37.5L93.8 37.7L94.3 37.9C94.9635 38.1422 95.6302 38.3755 96.3 38.6C96.6 38.7 96.8 38.9 96.9 39.1C97.1 39.3 97.1 39.6 97.1 39.9L97 40.7L96.5 41.3L95.7 41.8L94.5 41.9C94.1637 41.9088 93.8278 41.8752 93.5 41.8L92.7 41.4C92.4376 41.2038 92.2274 40.9462 92.0879 40.6498C91.9484 40.3534 91.8839 40.0272 91.9 39.7H93.2L93.3 40.2V40.2ZM100.3 35.6V41.8H99V35.6H100.3V35.6ZM102.1 36.8V35.6H107.1V36.8H105.3V41.8H103.9V36.8H102.1ZM113.5 35.6V36.8H110.2V38H113.2V39H110.2V40.5H113.6V41.7H108.9V35.5H113.5V35.6ZM11.2 27.2C11.2 27.2 11.2 23.2 7.69995 17.9C3.99995 12.3 0.699951 11.4 0.699951 11.4C2.89995 11.5 4.89995 12.2 6.69995 13.4C8.19995 14.4 9.49995 15.6 10.8 16.9C10.8 16.9 12.5 13.9 18.1 8.6C21.9 5.1 26.2 2.2 30.9 0C30.9 0 21.9 6 17.4 14.1C15.0204 18.2771 12.9482 22.6219 11.2 27.1V27.2Z" fill="#909091"/>
</svg>
