<svg width="110" height="50" viewBox="0 0 110 50" fill="none" xmlns="http://www.w3.org/2000/svg">
<path d="M0 40.4864V0H94.6745L109.785 40.4864H96.8229L94.8177 33.834H80.7096L78.776 40.4864H66.1003L77.4154 10.0858H60.8008V40.4864H48.4115V10.0858H36.1654C36.4518 12.5179 35.9505 14.9499 34.8047 17.0959C33.0859 19.9571 30.2214 21.9599 26.9271 22.6753C29.6484 23.176 32.1549 26.1087 33.444 28.8269L39.4596 40.5579H25.4232L18.8346 28.2546C17.6172 25.9657 16.3281 24.1774 13.5352 24.1774H12.4609V40.5579H0V40.4864V40.4864ZM92.2396 25.0358L87.7995 10.515L83.3594 25.0358H92.2396ZM12.4609 16.309H17.9036C20.9831 16.309 23.7044 15.2361 23.7044 12.3033C23.7044 8.3691 20.7682 8.22604 17.9036 8.22604H12.4609V16.309V16.309ZM0 49.9285V43.4192H2.72135C3.4375 43.4192 3.9388 43.4907 4.22526 43.5622C4.51172 43.6338 4.79818 43.9199 5.01302 44.206C5.22786 44.4921 5.29948 44.8498 5.29948 45.2074C5.29948 45.7082 5.15625 46.0658 4.86979 46.4235C4.58333 46.7811 4.15365 46.9242 3.58073 46.9957C3.86719 47.1388 4.08203 47.3534 4.29687 47.568C4.51172 47.7825 4.72656 48.1402 5.01302 48.6409L5.80078 49.9285H4.29687L3.36589 48.4979C3.00781 47.9971 2.79297 47.711 2.64974 47.568C2.50651 47.4249 2.36328 47.3534 2.29167 47.2818C2.22005 47.2103 1.93359 47.2103 1.57552 47.2103H1.36068V49.9285H0V49.9285ZM1.36068 46.1373H2.36328C3.00781 46.1373 3.36589 46.1373 3.50911 46.0658C3.65234 45.9943 3.79557 45.9227 3.86719 45.7797C3.9388 45.6366 4.01042 45.4936 4.01042 45.279C4.01042 45.0644 3.9388 44.8498 3.86719 44.7783C3.79557 44.7067 3.58073 44.5637 3.36589 44.4921H1.36068V46.1373ZM6.58854 49.9285V43.4192H11.3867V44.4921H7.8776V45.9227H11.1003V46.9957H7.8776V48.784H11.4583V49.8569H6.58854V49.9285V49.9285ZM12.2461 47.7825L13.5352 47.6395C13.6068 48.0687 13.75 48.3548 14.0365 48.5694C14.2513 48.784 14.6094 48.8555 14.9674 48.8555C15.3971 48.8555 15.6836 48.784 15.8984 48.5694C16.1133 48.4263 16.1849 48.2117 16.1849 47.9256C16.1849 47.7825 16.1133 47.6395 16.0417 47.568C15.9701 47.4249 15.8268 47.3534 15.5404 47.2818C15.3971 47.2103 15.0391 47.1388 14.4661 46.9957C13.75 46.8526 13.2487 46.6381 12.9622 46.3519C12.5326 45.9943 12.3893 45.5651 12.3893 45.0644C12.3893 44.7067 12.4609 44.4206 12.6758 44.1345C12.8906 43.8484 13.1055 43.6338 13.4635 43.4907C13.8216 43.3476 14.2513 43.2761 14.7526 43.2761C15.5404 43.2761 16.1849 43.4192 16.6146 43.7768C17.0443 44.1345 17.2591 44.6352 17.2591 45.2074L15.9701 45.279C15.8984 44.9213 15.8268 44.7067 15.612 44.5637C15.3971 44.4206 15.1823 44.3491 14.7526 44.3491C14.3945 44.3491 14.1081 44.4206 13.8932 44.5637C13.75 44.6352 13.6784 44.7783 13.6784 44.9928C13.6784 45.1359 13.75 45.279 13.8932 45.422C14.0365 45.5651 14.4661 45.7082 15.1107 45.8512C15.7552 45.9943 16.1849 46.1373 16.543 46.3519C16.8294 46.495 17.1159 46.7096 17.2591 46.9957C17.4023 47.2818 17.5456 47.6395 17.5456 47.9971C17.5456 48.3548 17.474 48.7124 17.2591 49.0701C17.0443 49.4278 16.7578 49.6423 16.3997 49.7854C16.0417 49.9285 15.5404 50 14.9674 50C14.1797 50 13.5352 49.7854 13.1055 49.4278C12.6042 49.0701 12.3177 48.4979 12.2461 47.7825ZM20.0521 49.9285V44.5637H18.1185V43.4907H23.2747V44.5637H21.3411V49.9285H20.0521ZM24.1341 49.9285V43.4192H26.8555C27.5716 43.4192 28.0729 43.4907 28.3594 43.5622C28.6458 43.7053 28.9323 43.9199 29.1471 44.206C29.362 44.4921 29.4336 44.8498 29.4336 45.2074C29.4336 45.7082 29.2904 46.0658 29.0039 46.4235C28.7174 46.7811 28.2878 46.9242 27.7148 46.9957C28.0013 47.1388 28.2161 47.3534 28.431 47.568C28.6458 47.7825 28.8607 48.1402 29.1471 48.6409L29.9349 49.9285H28.3594L27.4284 48.4979C27.0703 47.9971 26.8555 47.711 26.7122 47.568C26.569 47.4249 26.4258 47.3534 26.3542 47.2818C26.2826 47.2103 25.9961 47.2103 25.7096 47.2103H25.4232V49.9285H24.1341V49.9285ZM25.4948 46.1373H26.4974C27.1419 46.1373 27.5 46.1373 27.6432 46.0658C27.7865 45.9943 27.9297 45.9227 28.0013 45.7797C28.0729 45.6366 28.1445 45.4936 28.1445 45.279C28.1445 45.0644 28.0729 44.8498 28.0013 44.7783C27.9297 44.7067 27.7148 44.5637 27.5 44.4921H25.5664V46.1373H25.4948V46.1373ZM30.651 49.9285V43.4192H31.9401V49.9285H30.651ZM37.3112 47.4964L38.6003 47.9256C38.3854 48.6409 38.099 49.1416 37.5977 49.4993C37.168 49.8569 36.595 50 35.8789 50C35.0195 50 34.3034 49.7139 33.7305 49.1416C33.1576 48.5694 32.8711 47.7825 32.8711 46.7096C32.8711 45.6366 33.1576 44.7783 33.7305 44.206C34.3034 43.6338 35.0195 43.2761 35.9505 43.2761C36.7383 43.2761 37.3828 43.4907 37.8841 43.9914C38.1706 44.2775 38.3854 44.6352 38.5286 45.2074L37.2396 45.4936C37.168 45.1359 37.0247 44.9213 36.7383 44.7067C36.5234 44.4921 36.1654 44.4206 35.8789 44.4206C35.3776 44.4206 35.0195 44.5637 34.7331 44.9213C34.4466 45.279 34.3034 45.8512 34.3034 46.5665C34.3034 47.3534 34.4466 47.9971 34.7331 48.2833C35.0195 48.6409 35.3776 48.784 35.8789 48.784C36.237 48.784 36.5234 48.6409 36.8099 48.4263C37.0247 48.3548 37.2396 47.9971 37.3112 47.4964V47.4964ZM41.1784 49.9285V44.5637H39.2448V43.4907H44.401V44.5637H42.4674V49.9285H41.1784V49.9285ZM45.2604 49.9285V43.4192H50.0586V44.4921H46.5495V45.9227H49.7721V46.9957H46.5495V48.784H50.2018V49.8569H45.2604V49.9285V49.9285ZM51.276 43.4192H53.6393C54.2122 43.4192 54.5703 43.4907 54.8568 43.5622C55.2148 43.7053 55.5729 43.8484 55.8594 44.1345C56.1458 44.4206 56.3607 44.7783 56.5039 45.2074C56.6471 45.6366 56.7187 46.1373 56.7187 46.7096C56.7187 47.2103 56.6471 47.711 56.5039 48.0687C56.3607 48.5694 56.1458 48.927 55.7878 49.2132C55.5729 49.4278 55.2865 49.6423 54.8568 49.7139C54.5703 49.7854 54.2122 49.8569 53.7109 49.8569H51.276V43.4192V43.4192ZM52.5651 44.4921V48.784H53.5677C53.9258 48.784 54.2122 48.784 54.3555 48.7124C54.5703 48.6409 54.7135 48.5694 54.8568 48.4263C55 48.2833 55.1432 48.0687 55.2148 47.7825C55.2865 47.4964 55.3581 47.0672 55.3581 46.5665C55.3581 46.0658 55.2865 45.7082 55.2148 45.422C55.1432 45.1359 55 44.9213 54.8568 44.7783C54.7135 44.6352 54.4987 44.4921 54.2839 44.4921C54.069 44.4206 53.7109 44.4206 53.2096 44.4206H52.5651V44.4921V44.4921ZM61.8034 49.9285V44.5637H59.8698V43.4907H65.026V44.5637H63.0924V49.9285H61.8034ZM65.4557 46.7096C65.4557 46.0658 65.5273 45.4936 65.7422 45.0644C65.8854 44.7067 66.1003 44.4206 66.3151 44.206C66.6016 43.9199 66.8164 43.7768 67.1745 43.6338C67.6042 43.4907 68.0339 43.3476 68.5352 43.3476C69.4661 43.3476 70.2539 43.6338 70.8268 44.206C71.3997 44.7783 71.6862 45.6366 71.6862 46.7096C71.6862 47.7825 71.3997 48.5694 70.8268 49.1416C70.2539 49.7139 69.4661 50 68.5352 50C67.6042 50 66.8164 49.7139 66.2435 49.1416C65.6706 48.5694 65.4557 47.711 65.4557 46.7096V46.7096ZM66.7448 46.6381C66.7448 47.3534 66.888 47.9256 67.2461 48.2833C67.6042 48.6409 68.0339 48.8555 68.5352 48.8555C69.0365 48.8555 69.4661 48.6409 69.8242 48.2833C70.1823 47.9256 70.3255 47.3534 70.3255 46.5665C70.3255 45.8512 70.1823 45.279 69.8242 44.9213C69.4661 44.5637 69.0365 44.3491 68.5352 44.3491C67.9622 44.3491 67.5326 44.5637 67.2461 44.9213C66.9596 45.3505 66.7448 45.9227 66.7448 46.6381ZM80.7096 49.9285H79.2773L78.7044 48.4263H76.1263L75.625 49.9285H74.2643L76.7708 43.4192H78.1315L80.7096 49.9285ZM78.3464 47.3534L77.487 44.9213L76.6276 47.3534H78.3464ZM81.4258 43.4192H83.7891C84.362 43.4192 84.72 43.4907 85.0065 43.5622C85.3646 43.7053 85.7227 43.8484 86.0091 44.1345C86.2956 44.4206 86.5104 44.7783 86.6536 45.2074C86.7969 45.6366 86.8685 46.1373 86.8685 46.7096C86.8685 47.2103 86.7969 47.711 86.6536 48.0687C86.5104 48.5694 86.2956 48.927 85.9375 49.2132C85.7227 49.4278 85.4362 49.6423 85.0065 49.7139C84.72 49.7854 84.362 49.8569 83.8607 49.8569H81.4258V43.4192V43.4192ZM82.7148 44.4921V48.784H83.7174C84.0755 48.784 84.362 48.784 84.5052 48.7124C84.72 48.6409 84.8633 48.5694 85.0065 48.4263C85.1497 48.2833 85.293 48.0687 85.3646 47.7825C85.4362 47.4964 85.5078 47.0672 85.5078 46.5665C85.5078 46.0658 85.4362 45.7082 85.3646 45.422C85.293 45.1359 85.1497 44.9213 85.0065 44.7783C84.8633 44.6352 84.6484 44.4921 84.4336 44.4921C84.2187 44.4206 83.8607 44.4206 83.3594 44.4206H82.7148V44.4921V44.4921ZM87.9427 43.4192H89.2318V46.9242C89.2318 47.4964 89.2318 47.8541 89.3034 47.9971C89.375 48.2833 89.5182 48.4979 89.7331 48.6409C89.9479 48.784 90.2344 48.8555 90.5924 48.8555C90.9505 48.8555 91.237 48.784 91.4518 48.6409C91.6667 48.4979 91.7383 48.2833 91.8099 48.0687C91.8815 47.8541 91.8815 47.4964 91.8815 46.9957V43.4192H93.1706V46.8526C93.1706 47.6395 93.1706 48.2117 93.099 48.4979C93.0273 48.784 92.8841 49.0701 92.7409 49.2847C92.526 49.4993 92.3112 49.7139 91.9531 49.7854C91.6667 49.9285 91.237 50 90.7357 50C90.0911 50 89.6615 49.9285 89.3034 49.7854C89.0169 49.6423 88.7305 49.4278 88.5156 49.2132C88.3008 48.9986 88.2292 48.7124 88.1575 48.4979C88.0859 48.1402 88.0143 47.568 88.0143 46.8526V43.4192H87.9427V43.4192ZM94.5312 49.9285V43.4907H95.8203V48.8555H99.043V49.9285H94.5312ZM100.833 49.9285V44.5637H98.8997V43.4907H104.056V44.5637H102.122V49.9285H100.833ZM104.557 47.7825L105.846 47.6395C105.918 48.0687 106.061 48.3548 106.348 48.5694C106.562 48.784 106.921 48.8555 107.279 48.8555C107.708 48.8555 107.995 48.784 108.21 48.5694C108.424 48.4263 108.496 48.2117 108.496 47.9256C108.496 47.7825 108.424 47.6395 108.353 47.568C108.281 47.4249 108.138 47.3534 107.852 47.2818C107.708 47.2103 107.35 47.1388 106.777 46.9957C106.061 46.8526 105.56 46.6381 105.273 46.3519C104.844 45.9943 104.701 45.5651 104.701 45.0644C104.701 44.7067 104.772 44.4206 104.987 44.1345C105.202 43.8484 105.417 43.6338 105.775 43.4907C106.133 43.3476 106.562 43.2761 107.064 43.2761C107.852 43.2761 108.496 43.4192 108.926 43.7768C109.355 44.1345 109.57 44.6352 109.57 45.2074L108.281 45.279C108.21 44.9213 108.138 44.7067 107.923 44.5637C107.708 44.4206 107.493 44.3491 107.064 44.3491C106.706 44.3491 106.419 44.4206 106.204 44.5637C106.061 44.6352 105.99 44.7783 105.99 44.9928C105.99 45.1359 106.061 45.279 106.204 45.422C106.348 45.5651 106.777 45.7082 107.422 45.8512C108.066 45.9943 108.496 46.1373 108.854 46.3519C109.141 46.495 109.427 46.7096 109.57 46.9957C109.714 47.2818 109.857 47.6395 109.857 47.9971C109.857 48.3548 109.785 48.7124 109.57 49.0701C109.355 49.4278 109.069 49.6423 108.711 49.7854C108.353 49.9285 107.852 50 107.279 50C106.491 50 105.846 49.7854 105.417 49.4278C104.987 49.0701 104.629 48.4979 104.557 47.7825V47.7825Z" fill="#909091"/>
</svg>
