<svg xmlns:xlink="http://www.w3.org/1999/xlink" xmlns="http://www.w3.org/2000/svg" class="icon icon-pineapple-support" width="800"  height="800" ><defs><symbol id="icons-pineapple-support" viewBox="0 0 800 800"><path d="M794.798 400C794.798 618.033 618.035 794.798 399.996 794.798C181.956 794.798 5.21948 618.033 5.21948 400C5.21948 181.967 181.965 5.21948 399.996 5.21948C618.027 5.21948 794.798 181.958 794.798 400Z" fill="currentColor"></path><path d="M399.996 800C179.442 800 0 620.565 0 400C0 179.435 179.442 0 399.996 0C620.549 0 800 179.444 800 400C800 620.556 620.558 800 399.996 800ZM399.996 10.4041C185.175 10.4389 10.4388 185.177 10.4388 400C10.4388 614.823 185.201 789.596 400.022 789.596C614.843 789.596 789.613 614.823 789.613 400C789.613 185.177 614.816 10.4389 399.996 10.4389V10.4041Z" fill="#9D9FA2"></path><path d="M774.486 400C774.486 606.82 606.822 774.477 399.996 774.477C193.169 774.477 25.5229 606.82 25.5229 400C25.5229 193.18 193.178 25.5143 399.996 25.5143C606.814 25.5143 774.486 193.18 774.486 400Z" fill="#9D9FA2"></path><path d="M88.1291 550.842L78.7429 527.467C72.3492 511.557 77.8731 502.588 91.0346 497.308L110.816 489.365C123.951 484.085 134.303 486.677 140.697 502.579L143.75 510.182L175.562 497.403L181.895 513.175L88.1291 550.842ZM94.6534 529.903L131.58 515.115L129.249 509.312C127.083 503.91 123.508 502.623 118.393 504.676L96.8107 513.375C91.6957 515.437 90.156 518.786 92.322 524.179L94.6534 529.903Z" fill="currentColor"></path><path d="M61.3971 469.688L58.396 452.968L157.851 435.144L160.844 451.864L61.3971 469.688Z" fill="currentColor"></path><path d="M91.8524 402.001L155.355 403.688L154.972 417.99L53.9336 415.302L54.3772 398.617L112.808 381.836L54.8644 380.297L55.2384 366.143L156.233 368.84L155.833 383.733L91.8524 402.001Z" fill="currentColor"></path><path d="M62.0322 325.101L73.0712 286.095L86.4067 289.87L80.0043 312.488L107.841 320.317L112.417 304.11L125.578 307.947L121.002 324.153L150.535 332.504L156.938 309.843L170.282 313.61L159.261 352.616L62.0322 325.101Z" fill="currentColor"></path><path d="M174.405 301.24L96.915 233.631L106.719 216.92L203.599 251.49L194.77 266.53L177.25 259.876L168.116 275.43L182.548 287.356L174.405 301.24ZM157.555 266.635L164.41 254.943L126.057 240.198L125.987 240.329L157.555 266.635Z" fill="currentColor"></path><path d="M141.793 169.101L159.835 151.52C172.109 139.559 182.522 141.281 192.395 151.416L207.271 166.683C217.153 176.826 218.701 187.386 206.401 199.348L200.529 205.072L224.504 229.655L212.325 241.512L141.793 169.101ZM163.628 167.17L191.404 195.677L195.884 191.327C200.051 187.273 199.885 183.498 196.04 179.531L179.817 162.881C175.963 158.923 172.274 158.775 168.116 162.829L163.628 167.17Z" fill="currentColor"></path><path d="M209.645 110.574L231.584 98.1949C246.512 89.7742 256.141 94.1064 263.092 106.442L273.531 125.005C280.49 137.341 279.272 147.936 264.345 156.322L257.203 160.35L274.105 190.248L259.317 198.591L209.645 110.574ZM231.253 114.297L250.8 148.963L256.246 145.883C261.309 143.03 262.126 139.324 259.421 134.522L247.999 114.262C245.294 109.46 241.771 108.373 236.69 111.226L231.253 114.297Z" fill="currentColor"></path><path d="M289.049 72.2022L305.403 67.5917L329.082 151.494L348.585 145.988L352.352 159.323L316.495 169.449L289.049 72.2022Z" fill="currentColor"></path><path d="M361.877 55.9697L402.362 53.8558L403.084 67.696L379.597 68.9226L381.102 97.8035L397.926 96.9336L398.63 110.635L381.815 111.504L383.416 142.169L406.903 140.942L407.625 154.782L367.096 156.879L361.877 55.9697Z" fill="currentColor"></path><path d="M481.609 145.274L486.916 132.791L501.452 138.967L496.041 151.729C493.823 156.948 494.867 160.95 500.217 163.229C505.158 165.326 508.75 162.968 510.847 158.01L512.369 154.443C514.64 149.093 513.848 144.874 510.969 138.298L505.68 125.266C500.504 112.696 498.651 105.607 503.2 94.9067L504.549 91.7489C509.438 80.2227 519.955 74.1594 535.178 80.6315C550.836 87.2863 553.716 97.586 548.009 111.026L544.799 118.577L530.533 112.487L534.012 104.397C536.283 99.0387 534.882 95.3851 529.985 93.2887C525.635 91.4271 521.529 92.6101 519.311 97.8209L518.502 99.7434C516.284 104.963 517.876 109.199 520.538 115.506L526.288 129.616C531.116 141.873 533.012 148.832 528.645 159.114L526.731 163.647C521.303 176.399 510.594 182.541 494.684 175.773C478.773 169.005 476.425 157.514 481.609 145.274Z" fill="currentColor"></path><path d="M632.207 142.943L585.11 203.149C575.463 215.467 563.937 219.312 550.314 208.664C536.239 197.651 536.613 185.072 546.26 172.755L593.348 112.557L606.727 122.996L558.622 184.507C554.959 189.205 554.35 193.841 559.048 197.556C563.745 201.27 568.104 199.53 571.775 194.833L619.889 133.348L632.207 142.943Z" fill="currentColor"></path><path d="M661.921 173.346L677.058 193.476C687.357 207.177 684.33 217.285 673.012 225.793L655.989 238.606C644.68 247.114 633.998 247.305 623.698 233.613L618.766 227.045L591.373 247.662L581.16 234.083L661.921 173.346ZM661.051 195.259L629.248 219.216L633.015 224.218C636.494 228.863 640.287 229.185 644.697 225.871L663.278 211.892C667.689 208.577 668.306 204.932 664.809 200.296L661.051 195.259Z" fill="currentColor"></path><path d="M711.41 248.245L720.874 271.585C727.294 287.469 721.744 296.464 708.652 301.779L688.897 309.773C675.779 315.089 665.409 312.531 658.981 296.647L655.902 289.052L624.124 301.909L617.757 286.199L711.41 248.245ZM704.946 269.192L668.08 284.129L670.429 289.931C672.604 295.316 676.188 296.603 681.294 294.533L702.841 285.834C707.956 283.763 709.496 280.405 707.312 275.021L704.946 269.192Z" fill="currentColor"></path><path d="M665.749 342.743L714.315 337.054C729.973 335.218 742.3 341.586 744.387 359.349C746.484 377.261 735.984 386.316 720.291 388.135L671.742 393.815C656.197 395.642 643.749 389.292 641.653 371.38C639.565 353.582 650.213 344.535 665.749 342.743ZM667.097 377.252L720.979 370.945C727.068 370.232 731.035 367.065 730.321 360.994C729.625 355.069 725.024 352.912 718.952 353.625L665.07 359.932C658.981 360.646 655.014 363.812 655.719 369.736C656.432 375.799 661.025 377.931 667.097 377.217V377.252Z" fill="currentColor"></path><path d="M688.679 436.362L642.853 429.542L645.359 412.735L745.292 427.602L741.656 452.073C739.133 469.027 729.808 473.968 715.803 471.889L702.98 469.975C692.22 468.375 686.452 463.599 685.669 453.691L637.877 462.999L640.487 445.313L688.679 436.362ZM729.069 442.373L697.961 437.745L697.091 443.347C696.221 449.089 698.831 452.046 704.111 452.829L718.9 455.022C724.354 455.831 727.381 453.717 728.234 447.975L729.069 442.373Z" fill="currentColor"></path><path d="M728.103 511.043L710.853 552.799L698.04 547.501L703.398 534.566L622.846 501.213L629.353 485.407L709.914 518.725L715.272 505.78L728.103 511.043Z" fill="currentColor"></path><path d="M629.37 400C629.37 526.684 526.722 629.368 399.996 629.368C273.269 629.368 170.63 526.719 170.63 400C170.63 273.281 273.321 170.632 399.996 170.632C526.67 170.632 629.37 273.324 629.37 400Z" fill="currentColor"></path><path d="M399.995 634.57C270.659 634.57 165.428 529.311 165.428 400C165.428 270.689 270.685 165.43 399.995 165.43C529.306 165.43 634.58 270.689 634.58 400C634.58 529.311 529.34 634.57 399.995 634.57ZM399.995 175.834C276.392 175.834 175.832 276.395 175.832 400C175.832 523.605 276.392 624.166 399.995 624.166C523.599 624.166 624.168 523.605 624.168 400C624.168 276.395 523.608 175.834 399.995 175.834Z" fill="#9D9FA2"></path><path d="M609.484 400C609.484 515.697 515.701 609.482 399.996 609.482C284.291 609.482 190.507 515.697 190.507 400C190.507 284.302 284.308 190.509 399.996 190.509C515.683 190.509 609.484 284.302 609.484 400Z" fill="currentColor"></path><path d="M399.996 614.693C281.62 614.693 185.288 518.385 185.288 400C185.288 281.615 281.62 185.29 399.996 185.29C518.371 185.29 614.686 281.597 614.686 399.983C614.686 518.368 518.38 614.693 399.996 614.693ZM399.996 195.72C287.361 195.729 195.727 287.356 195.727 400C195.727 512.644 287.361 604.28 399.996 604.28C512.63 604.28 604.282 512.644 604.282 400C604.282 287.356 512.638 195.729 399.996 195.729V195.72Z" fill="#9D9FA2"></path><path fill-rule="evenodd" clip-rule="evenodd" d="M400.005 669.323L411.844 693.323L438.333 697.177L419.169 715.854L423.692 742.23L400.005 729.781L376.309 742.23L380.841 715.854L361.677 697.177L388.165 693.323L400.005 669.323Z" fill="currentColor"></path><path fill-rule="evenodd" clip-rule="evenodd" d="M484.576 679.988L492.953 696.968L511.691 699.7L498.129 712.905L501.33 731.564L484.576 722.752L467.822 731.564L471.023 712.905L457.47 699.7L476.199 696.968L484.576 679.988Z" fill="currentColor"></path><path fill-rule="evenodd" clip-rule="evenodd" d="M314.607 679.988L322.984 696.968L341.713 699.7L328.16 712.905L331.361 731.564L314.607 722.752L297.853 731.564L301.054 712.905L287.492 699.7L306.221 696.968L314.607 679.988Z" fill="currentColor"></path><path fill-rule="evenodd" clip-rule="evenodd" d="M463.333 359.584C463.133 361.161 462.4 362.623 461.254 363.725C459.218 363.995 459.097 362.333 458 361.655C454.303 359.636 447.431 360.785 442.899 359.584C444.639 354.939 452.372 351.477 458.296 353.66C460.906 354.617 461.715 357.688 463.333 359.584Z" fill="#9D9FA2"></path><path fill-rule="evenodd" clip-rule="evenodd" d="M435.488 354.547C437.227 358.897 438.036 361.95 443.195 361.95C443.989 361.967 444.779 362.066 445.552 362.246C447.031 362.655 448.162 364.169 450.894 364.029C451.572 367.431 445.996 368.831 443.491 370.545C441.36 372.006 439.054 373.842 434.6 373.207C430.999 372.694 426.502 372.476 423.935 369.362C424.579 367.492 423.692 367.535 422.752 366.691C423.622 365.099 425.623 364.63 426.902 363.438C428.25 358.958 430.364 355.252 435.488 354.547Z" fill="#9D9FA2"></path><path fill-rule="evenodd" clip-rule="evenodd" d="M341.617 360.472C343.74 357.462 346.915 357.966 351.377 359.288C353.422 359.889 355.257 361.35 356.719 361.359C358.589 361.359 361.138 360.002 361.755 362.846C364.495 362.159 366.836 362.899 370.037 363.716C374.308 367.466 371.933 375.999 366.192 376.46C360.276 383.028 349.864 384.681 343.983 377.644C341.887 375.129 338.972 371.641 341.313 367.57C339.625 364.856 342.313 363.107 341.617 360.472Z" fill="#9D9FA2"></path><path fill-rule="evenodd" clip-rule="evenodd" d="M315.25 377.652C314.711 379.975 313.154 381.271 311.988 382.985C308.282 383.541 306.038 382.193 302.819 380.906C303.828 373.424 308.996 370.119 315.25 367.857C315.494 366.744 313.119 366.256 313.511 364.604C313.902 362.951 316.947 362.794 319.139 363.125C321.157 363.429 323.175 365.221 325.359 365.787C327.098 366.248 328.925 365.065 329.204 366.657C329.891 366.256 330.195 365.465 331.578 365.787C333.666 366.761 334.78 368.701 335.432 371.119C334.562 373.459 332.37 372.563 330.395 372.859C325.341 373.772 319.774 376.182 315.25 377.652Z" fill="#9D9FA2"></path><path fill-rule="evenodd" clip-rule="evenodd" d="M415.941 377.939C416.002 379.174 417.585 378.87 417.428 380.314C414.88 382.924 408.825 381.984 405.876 384.159C404.771 383.498 403.527 382.959 402.918 381.793C405.319 377.583 407.799 373.45 412.392 371.432C412.026 368.161 416.028 366.613 418.02 367.283C421.734 368.544 417.759 376.6 415.941 377.939Z" fill="#9D9FA2"></path><path fill-rule="evenodd" clip-rule="evenodd" d="M452.346 370.58C452.442 374.259 456.121 376.269 458.27 378.278C458.627 378.618 458.548 379.479 458.862 379.757C460.036 380.801 461.724 380.879 461.828 382.123C461.976 384.002 459.131 384.463 457.679 385.681C455.765 387.291 452.459 391.658 447.605 388.935C443.517 390.588 440.046 387.499 437.845 385.386C437.575 382.819 437.671 380.227 438.132 377.687C442.594 377.496 446.031 374.025 447.605 369.98C449.21 369.847 450.825 370.052 452.346 370.58Z" fill="#9D9FA2"></path><path fill-rule="evenodd" clip-rule="evenodd" d="M380.145 371.136C381.093 372.554 379.753 373.459 379.849 374.399C380.345 379.331 388.191 378.635 389.618 383.28C389.253 385.89 390.218 387.63 390.819 389.787C389.47 390.927 388.531 392.449 386.956 393.345C386.901 394.386 386.603 395.399 386.086 396.303C380.867 404.55 367.879 403.036 363.286 395.12C364.313 392.266 361.677 391.701 362.103 388.613C363.129 387.212 365.182 387.186 364.765 385.055C370.48 382.671 374.595 377.974 374.838 371.728C376.187 370.006 377.9 370.441 380.145 371.136Z" fill="#9D9FA2"></path><path fill-rule="evenodd" clip-rule="evenodd" d="M432.834 376.165C434.148 376.165 433.704 378.304 433.417 379.131C434.809 383.95 436.827 388.161 439.933 391.31C442.16 390.596 442.821 393.128 444.074 394.267C443.977 394.926 443.708 395.547 443.294 396.068C442.88 396.589 442.336 396.991 441.716 397.234C442.038 400.026 440.307 400.765 439.637 402.566C438.063 402.862 436.566 404.976 434.6 405.524C434.218 405.628 433.496 405.072 433.122 405.228C431.556 405.872 428.059 408.134 425.719 408.482C418.055 409.656 413.305 405.063 408.834 401.67C408.531 400.614 408.434 399.51 408.547 398.417C405.754 396.677 406.807 392.815 407.364 389.239C411.356 388.839 417.263 389.03 420.412 386.273C419.673 382.793 419.786 379.775 421.9 377.974C425.875 377.539 429.259 376.321 432.834 376.165Z" fill="#9D9FA2"></path><path fill-rule="evenodd" clip-rule="evenodd" d="M329.465 377.06C330.517 378.331 328.438 378.435 328.882 380.018C330.161 383.411 334.267 385.438 334.206 389.204C334.545 389.796 335.519 388.561 336.58 388.9C338.729 390.257 336.006 393.31 337.45 394.833C336.406 396.346 334.475 396.973 333.005 398.086C332.544 405.393 322.288 404.228 318.495 400.748C318.086 396.912 315.172 395.581 314.65 391.866C318.869 389.431 325.689 387.056 322.645 380.018C323.323 377.339 326.507 374.816 329.465 377.06Z" fill="#9D9FA2"></path><path fill-rule="evenodd" clip-rule="evenodd" d="M402.623 390.683C402.571 391.023 402.684 391.205 402.919 391.275C401.953 394.076 401.823 396.573 404.397 397.791C403.014 402.592 407.12 403.749 408.242 406.968C408.451 407.838 408.877 406.681 409.426 406.968C409.747 408.081 408.695 407.838 408.834 408.708C410.269 409.578 411.026 411.065 412.983 411.378C415.071 414.284 413.74 418.451 412.983 421.739C411.8 423.122 410.095 423.983 409.721 426.184C403.954 433.874 389.713 430.534 386.338 422.922C387.626 419.442 383.468 418.686 384.598 415.519C381.275 415.328 381.754 410.865 382.528 408.116C385.225 408.273 388.322 406.107 390.227 404.271C392.046 402.462 393.549 400.359 394.672 398.051C394.863 397.46 394.263 396.547 394.367 395.972C394.672 394.424 396.603 393.11 395.846 391.536C397.247 390.527 400.727 389.431 402.623 390.683Z" fill="#9D9FA2"></path><path fill-rule="evenodd" clip-rule="evenodd" d="M453.26 398.973C454.034 406.394 459.453 409.169 463.925 412.892C464.168 413.762 463.507 413.657 463.629 414.371C465.047 414.954 468.753 416.05 468.961 417.929C469.309 421.034 463.411 421.904 461.254 423.853C459.967 428.02 453.521 431.317 447.936 430.36C446.901 430.194 446.492 429.394 445.552 429.185C437.245 431.421 431.843 426.576 428.38 422.069C429.52 418.92 428.041 414.832 429.572 410.526C430.338 409.786 431.025 410.813 432.234 410.526C437.253 407.916 443.404 405.011 444.073 398.973C445.665 396.138 451.346 398.599 453.26 398.973Z" fill="#9D9FA2"></path><path fill-rule="evenodd" clip-rule="evenodd" d="M373.594 413.779C374.873 414.936 376.421 414.075 377.735 414.962C375.525 420.73 382.293 423.357 385.442 426.515C385.895 426.95 385.703 428.037 385.738 428.89C387.948 429.542 387.574 432.769 389.888 433.326C389.888 435.179 388.261 436.214 389.583 437.763C388.217 439.946 386.973 442.251 384.555 443.4C385.425 448.967 375.151 455.665 373.299 449.915C369.097 449.228 364.713 449.045 362.051 445.47C361.181 444.278 359.441 441.321 359.38 440.433C359.302 438.328 361.042 437.667 360.859 435.101C360.737 433.361 359.876 430.751 361.155 428.585C362.025 428.342 361.929 429.011 362.633 428.89C367.34 426.332 369.14 421.582 370.637 416.45C371.289 415.232 373.864 415.928 373.594 413.779Z" fill="#9D9FA2"></path><path fill-rule="evenodd" clip-rule="evenodd" d="M422.465 418.52C422.544 420.217 421.708 421.591 422.752 422.67C424.205 422.731 424.997 422.148 426.615 422.374C426.354 430.403 433.087 433.804 436.975 438.659C434.366 443.008 429.338 444.844 427.789 450.202C425.353 452.568 421.552 452.368 417.724 451.394C417.15 450.976 417.194 449.95 416.854 449.324C411.774 449.063 409.556 445.948 406.781 443.4C408.033 438.998 405.467 436.988 404.119 433.326C404.397 433.326 404.354 432.961 404.415 432.735C410.365 431.473 413.114 427.054 415.663 422.374C416.15 421.73 414.793 420.834 415.663 419.703C416.656 419.052 417.772 418.611 418.941 418.408C420.111 418.204 421.311 418.243 422.465 418.52Z" fill="#9D9FA2"></path><path fill-rule="evenodd" clip-rule="evenodd" d="M288.31 429.185C291.937 432.665 297.339 434.361 301.924 436.884C297.983 442.486 288.318 439.363 283.864 436.014C284.095 435.301 284.073 434.53 283.802 433.832C283.531 433.133 283.028 432.549 282.377 432.178C281.846 428.402 287.718 423.844 288.31 429.185Z" fill="#9D9FA2"></path><path fill-rule="evenodd" clip-rule="evenodd" d="M409.426 457.901C410.767 457.815 412.105 458.117 413.279 458.771C412.844 462.972 410.261 465.025 407.947 467.357C407.39 470.636 405.737 472.855 402.919 473.872C402.049 474.794 403.014 475.708 402.049 476.247C400.744 476.247 401.97 475.377 402.049 475.055C399.091 476.143 397.047 475.055 394.063 476.543C390.488 475.83 385.625 474.386 383.389 470.619C382.267 468.696 380.458 464.721 380.432 464.103C380.432 462.851 381.484 461.885 381.91 460.841C380.971 458.388 383.207 454.587 383.65 451.664C391.419 450.637 393.219 443.687 396.699 438.337C403.989 441.834 406.05 450.533 409.426 457.901Z" fill="#9D9FA2"></path><path fill-rule="evenodd" clip-rule="evenodd" d="M308.152 440.729C308.022 442.921 308.726 444.513 309.326 446.653C310.77 446.81 310.64 445.392 311.988 445.47C313.145 448.471 313.284 452.429 317.617 452.281C318.025 453.551 320.287 453.864 320.287 455.535C320.287 456.405 317.33 459.884 315.851 461.163C312.771 463.912 308.222 465.713 303.411 464.129C297.496 466.252 292.676 461.807 289.788 458.197C290.911 455.3 289.101 452.316 288.918 449.028C291.198 448.419 293.407 448.819 296.026 447.54C296.635 441.173 302.037 437.562 308.152 440.729Z" fill="#9D9FA2"></path><path fill-rule="evenodd" clip-rule="evenodd" d="M350.499 444.287C351.529 448.911 353.55 453.256 356.423 457.022C357.014 457.118 357.354 456.961 357.293 456.422C358.406 457.675 360.077 458.379 360.546 460.276C359.859 461.267 359.328 462.416 357.884 462.642C357.98 468.079 353.317 468.731 350.186 470.941C349.907 470.995 349.619 470.969 349.355 470.864C349.091 470.759 348.863 470.58 348.698 470.349C346.649 471.782 344.333 472.788 341.887 473.307C334.336 474.325 328.464 469.088 324.715 465.608C324.545 464.527 324.545 463.427 324.715 462.346C324.558 461.119 323.045 461.259 322.975 459.98C323.497 457.37 322.975 453.699 325.054 452.577C328.864 454.221 334.293 452.681 337.233 450.837C337.233 447.74 336.224 444.748 338.973 442.843C340.373 441.895 342.4 442.53 344.592 442.243C347.82 441.799 352.404 439.555 350.499 444.287Z" fill="#9D9FA2"></path><path fill-rule="evenodd" clip-rule="evenodd" d="M370.933 457.901C370.905 458.519 371.098 459.127 371.477 459.617C371.857 460.106 372.397 460.444 373.003 460.571C372.446 466.208 376.23 469.679 378.631 473.307C380.015 473.611 379.614 472.124 381.006 472.437C380.915 473.513 381.051 474.595 381.407 475.614C381.762 476.634 382.328 477.567 383.068 478.352C385.678 478.552 387.417 479.57 388.409 481.319C387.148 485.59 382.772 486.747 380.406 489.905C379.719 494.933 367.47 503.458 365.304 495.829C362.164 496.472 358.898 495.946 356.118 494.35C354.883 493.567 353.856 491.514 352.578 490.209C350.838 488.408 348.567 486.982 351.09 483.989C350.699 481.287 350.118 478.615 349.35 475.995C352.247 474.255 355.083 473.707 357.936 471.254C360.59 468.966 362.669 466.182 362.086 462.659C362.529 461.102 364.635 460.754 363.565 458.519C365.2 454.908 367.81 456.622 370.933 457.901Z" fill="#9D9FA2"></path><path fill-rule="evenodd" clip-rule="evenodd" d="M321.766 462.059C322.914 463.277 322.07 465.321 321.766 466.791C322.036 468.766 324.724 469.158 323.254 471.237C328.108 475.273 327.238 485.825 323.549 490.488C319.356 490.54 318.017 494.228 314.067 494.333C308.761 494.472 305.951 489.513 303.115 485.747C305.116 483.52 302.402 481.615 304.594 479.527C304.385 477.787 303.35 475.873 304.003 474.194C304.959 473.707 305.603 474.055 306.664 474.194C314.581 473.229 311.762 459.945 321.766 462.059Z" fill="#9D9FA2"></path><path fill-rule="evenodd" clip-rule="evenodd" d="M428.685 465.608C427.963 470.41 429.799 477.613 434.601 477.787C433.6 479.805 436.149 480.518 435.47 482.815C437.506 481.162 441.186 482.432 442.882 483.685C443.169 487.73 439.681 488.034 438.733 490.792C440.472 496.298 436.993 500.918 434.296 503.84C433.226 503.919 432.861 503.292 431.921 503.249C429.024 504.18 426.154 507.007 422.144 507.094C415.236 507.242 410.217 500.448 406.485 496.733C407.86 492.801 404.284 491.514 405.894 488.434C404.597 486.982 404.154 484.624 404.415 481.623C411.374 480.014 414.932 474.968 418.038 469.444C418.272 468.409 417.594 468.296 417.742 467.365C417.881 466.113 419.081 465.947 419.812 465.295C419.186 464.182 419.812 463.607 420.404 462.92C424.457 462.529 427.058 463.581 428.685 465.608Z" fill="#9D9FA2"></path><path fill-rule="evenodd" clip-rule="evenodd" d="M306.969 468.009C304.829 471.489 302.437 474.969 297.191 474.534C296.913 473.229 296.06 472.498 296.321 470.68C298.974 470.219 303.315 466.435 306.969 468.009Z" fill="#9D9FA2"></path><path fill-rule="evenodd" clip-rule="evenodd" d="M355.536 497.586C354.666 502.91 351.108 505.589 347.237 507.955C348.394 510.113 346.967 511.609 345.497 512.688C342.339 511.974 339.825 514.541 336.311 514.427C330.134 514.297 325.654 509.956 321.801 506.729C323.723 500.779 316.886 499.222 319.435 493.68C327.655 494.08 332.483 487.843 334.223 481.841C337.598 480.292 341.182 481.954 342.818 483.911C343.322 489.322 347.376 491.192 349.916 494.576C352.952 494.446 353.979 496.273 355.536 497.586Z" fill="#9D9FA2"></path><path fill-rule="evenodd" clip-rule="evenodd" d="M396.673 486.338C396.899 488.304 397.369 488.591 398.744 489C398.222 494.75 402.171 498.073 404.372 502.049C405.616 502.11 405.242 500.596 406.738 500.866C405.868 505.798 410.47 507.26 413.845 508.86C413.576 514.219 408.626 514.949 406.147 518.046C405.973 522.787 393.298 532.13 391.045 524.266C387.661 525.432 383.546 523.649 381.267 521.891C377.918 523.883 375.543 526.824 372.09 528.703C372.96 530.26 371.394 530.747 372.09 532.261C370.611 535.627 367.349 537.202 364.391 539.072C356.014 541.682 347.993 536.462 343.957 531.078C344.211 530.01 344.31 528.911 344.253 527.815C342.391 525.867 340.773 521.074 342.174 517.742C344.873 518.024 347.601 517.728 350.177 516.872C351.108 512.174 354.526 509.965 356.397 506.207C357.084 506.111 357.501 505.737 358.467 505.911C359.085 503.475 362.121 503.449 365.278 503.536C365.983 503.928 366.148 504.867 366.47 505.615C367.246 505.077 368.201 504.862 369.132 505.015C369.906 509.565 372.333 512.479 375.352 514.793C378.04 511.748 376.074 508.199 375.047 504.424C375.822 502.684 377.561 503.493 378.91 502.945C383.068 501.257 385.73 497.29 388.079 493.767C388.244 492.628 387.557 492.323 387.792 491.105C390.201 488.904 388.888 486.382 391.637 484.294C393.141 485.155 395.125 485.547 396.673 486.338Z" fill="#9D9FA2"></path><path fill-rule="evenodd" clip-rule="evenodd" d="M464.812 501.44C465.43 501.274 465.682 500.709 466.552 500.848C467.161 501.622 468.135 502.022 468.631 502.918C467.63 508.756 472.919 508.303 473.067 512.992C470.632 513.949 467.848 513.975 466.256 516.245C468.231 519.595 466.456 523.205 464.186 524.84C463.116 524.91 463.098 523.97 462.106 523.97C461.184 524.597 461.933 525.179 461.515 526.049C458.905 526.823 458.444 529.32 456.487 530.199C449.136 533.478 441.812 527.589 437.836 523.97C438.706 518.803 433.26 517.011 435.157 510.922C438.532 510 441.986 510.295 444.639 507.668C444.352 505.989 444.856 505.119 446.118 504.989C445.169 500.535 447.857 498.082 448.484 494.333C449.937 493.898 451.189 493.289 451.45 491.671C454.599 490.914 457.366 488.756 459.749 491.375C460.801 495.013 462.518 498.426 464.812 501.44Z" fill="#9D9FA2"></path><path fill-rule="evenodd" clip-rule="evenodd" d="M426.614 510.026C426.223 511.974 427.423 513.862 426.31 514.767C427.771 515.384 428.598 516.62 428.38 518.916C430.607 523.405 434.13 526.597 437.871 529.572C439.298 529.712 439.898 527.833 441.116 528.703C441.986 529.799 440.307 530.303 440.82 531.965C441.62 532.939 443.256 533.096 443.786 534.331C442.742 539.55 437.488 540.472 435.192 544.404C434.67 544.404 434.574 544.039 434.009 544.109C432.269 546.64 431.295 548.006 428.085 549.432C426.928 549.954 425.945 551.042 425.127 551.172C420.777 552.042 414.218 548.85 411.208 545.831C409.791 544.43 406.641 541.186 406.467 539.324C406.354 538.089 407.337 537.054 407.337 536.071C407.337 535.088 406.589 534.661 406.467 533.992C406.059 532.086 406.215 529.442 405.284 526.884C408.842 526.093 411.461 524.37 414.166 522.744C413.566 519.221 415.845 515.95 416.837 512.374C417.561 512.241 418.239 511.926 418.808 511.459C419.377 510.992 419.818 510.388 420.09 509.704C422.117 509.278 425.118 508.634 426.614 510.026Z" fill="#9D9FA2"></path><path fill-rule="evenodd" clip-rule="evenodd" d="M390.784 528.102C390.357 533.966 396.873 535.401 398.769 539.942C400.065 540.577 402.945 541.055 402.623 543.491C402.353 545.492 399.083 545.161 396.699 547.345C394.959 548.963 394.089 551.799 391.071 552.39C388.792 552.888 386.416 552.679 384.259 551.79C378.17 553.53 373.82 549.693 370.932 546.457C371.515 543.186 370.576 540.69 371.802 536.68C377.892 536.61 382.241 531.46 383.937 526.911C385.903 526.51 389.305 527.058 390.784 528.102Z" fill="#9D9FA2"></path><path fill-rule="evenodd" clip-rule="evenodd" d="M402.623 555.052C401.048 556.922 403.206 557.792 402.919 560.08C403.528 560.576 404.258 558.662 404.659 558.01C405.276 557.888 405.441 558.21 405.842 558.305C406.711 557.183 407.451 555.965 408.208 554.747C410.348 555.069 411.279 555.052 412.357 553.878C415.445 554.208 419.395 557.357 416.498 560.097C412.766 559.915 413.523 564.221 409.391 563.655C406.825 565.334 404.345 567.135 400.509 567.492C398.186 565.673 395.559 564.16 393.698 561.872C394.118 561.274 394.368 560.573 394.422 559.844C394.475 559.115 394.33 558.385 394.002 557.731C394.002 556.574 395.194 556.548 395.742 555.991C395.142 551.677 400.413 554.13 402.623 555.052Z" fill="#9D9FA2"></path><path fill-rule="evenodd" clip-rule="evenodd" d="M485.542 368.762C484.75 372.807 482.062 374.912 479.026 376.765C479.583 378.566 478.695 378.983 478.156 380.314C476.495 380.375 474.676 380.636 473.415 381.793C466.021 383.054 461.932 379.27 458.313 375.869C459.862 371.284 454.173 369.579 456.574 365.212C457.444 365.212 458.505 365.047 458.94 365.508C462.298 364.43 464.568 362.255 466.934 360.176C467.7 357.105 468.074 354.843 472.858 355.435C473.501 356.282 474.309 356.989 475.233 357.514C476.025 363.864 481.801 365.299 485.542 368.762Z" fill="#9D9FA2"></path><path fill-rule="evenodd" clip-rule="evenodd" d="M484.359 406.376C488.9 406.263 491.188 400.444 495.024 397.199C496.273 398.132 497.117 399.508 497.381 401.044C498.469 401.366 501.731 403.558 500.052 403.714C501.435 404.306 502.818 406.385 503.906 408.151C503.906 408.917 503.688 408.508 503.314 408.447C503.61 409.43 504.506 408.368 505.054 409.317C504.053 413.031 507.072 413.257 506.237 416.128C506.628 415.771 506.698 416.015 507.107 416.128C508.125 415.815 506.289 416.041 506.82 415.258C507.652 415.146 508.496 415.358 509.177 415.85C509.891 418.459 506.707 420.199 505.924 419.408C505.993 422.6 502.444 422.835 501.774 426.515C500.029 426.915 498.406 427.73 497.042 428.89C489.413 429.603 486.177 425.923 482.532 422.67C481.74 422.87 481.897 424.018 481.044 424.149C481.201 426.48 485.864 427.994 484.898 432.152C486.969 431.908 489.082 431.056 490.526 432.439V435.101C489.709 435.431 488.969 436.893 488.152 436.284C488.073 440.738 482.523 441.816 483.715 446.653C482.776 447.888 481.105 448.393 481.044 450.507C477.661 455.143 467.239 455.039 464.168 450.202C463.455 450.385 463.507 451.324 463.298 451.986C464.334 452.429 465.317 453.482 464.777 454.656C471.658 456.396 463.403 460.746 464.186 465.313C463.481 466.035 463.638 464.869 462.698 465.017C462.846 467.957 460.845 468.853 461.515 471.532C457.801 476.082 454.33 480.458 447.301 479.527C442.951 478.944 437.915 474.194 435.122 470.941C433.287 468.775 434.191 467.818 433.643 464.721C433.321 462.929 431.295 461.528 432.46 459.388C431.956 458.519 430.538 458.519 429.798 457.901V456.161C431.877 455.178 433.565 453.804 435.722 452.899C436.244 447.471 440.576 444.2 443.125 439.85C444.204 439.789 444.256 439.442 445.187 439.85C445.448 436.606 451.076 439.181 450.528 436.292C451.946 436.501 453.207 437.606 452.599 438.963C455.212 440.744 457.684 442.725 459.993 444.887C461.132 443.46 459.488 442.277 458.818 441.625C459.958 437.641 457.079 437.415 456.156 434.822C458.688 431.647 463.185 430.847 466.221 428.298C468.683 426.236 470.345 423.261 471.85 420.304C472.563 420.138 472.485 419.164 473.589 419.434C473.842 418.407 473.041 418.181 473.589 417.65C475.477 417.807 475.407 419.564 475.668 420.617C476.939 421.13 478.887 423.383 481.305 421.8C482.462 416.876 479.827 414.319 478.043 410.839C477.173 410.769 477.173 411.518 476.303 411.439C470.005 411.718 463.629 406.968 459.723 404.028C458.723 403.288 458.427 402.201 457.644 401.366C458.253 397.208 454.712 396.346 454.982 393.076C455.104 391.518 456.965 390.831 456.165 388.335C458.671 385.446 463.777 387.465 468.013 386.264C468.883 385.995 469.553 385.055 470.379 384.785C474.364 383.472 479.574 384.55 484.002 384.49C484.562 385.234 485.057 386.026 485.481 386.856C488.839 385.942 489.526 389.796 490.813 391.892C491.796 391.692 491.144 389.857 491.997 389.526C493.736 393.389 489.926 396.694 489.039 399.887C488.804 400 488.352 399.739 488.439 399.591C487.517 401.357 485.751 404.089 484.359 406.376Z" fill="#9D9FA2"></path><path fill-rule="evenodd" clip-rule="evenodd" d="M516.344 412.005C515.022 415.136 508.515 412.57 508.045 412.3C506.601 406.211 504.261 401.079 504.2 393.641C504.827 393.18 506.027 393.31 505.671 391.901C510.89 394.459 514.605 398.573 517.232 403.749C517.293 404.619 517.153 405.245 516.631 405.489C518.719 408.081 517.101 409.63 516.344 412.005Z" fill="#9D9FA2"></path><path fill-rule="evenodd" clip-rule="evenodd" d="M513.082 422.374C513.16 423.635 512.169 423.835 512.491 425.332C512.491 426.48 513.691 426.497 513.969 427.402C514.1 428.02 513.761 428.185 513.674 428.585C514.865 429.864 515.17 432.065 516.344 433.326C516.196 435.788 516.901 440.546 515.153 440.433C515.527 442.243 514.935 445.505 511.89 444.878C508.533 449.846 499.12 447.619 498.572 442.208C496.832 443.652 497.58 438.728 497.093 436.884C499.277 437.284 496.519 432.726 497.963 430.96C502.252 431.83 504.148 428.15 505.653 425.332C506.201 426.071 505.444 426.036 506.253 426.202C504.322 423.226 510.768 418.285 513.082 422.374Z" fill="#9D9FA2"></path><path fill-rule="evenodd" clip-rule="evenodd" d="M500.643 474.194C500.147 474.307 500.086 473.968 500.051 473.603C499.877 474.76 499.634 473.994 498.868 474.786C498.111 474.159 498.529 474.681 497.381 474.194C497.459 474.629 495.362 477.352 495.319 475.934C490.587 481.527 482.436 475.125 479.922 470.306C480.539 467.974 480.792 467.513 480.209 464.973C480.496 464.469 481.192 464.373 481.4 463.781C480.913 462.337 479.991 459.954 480.8 458.153C481.853 457.579 481.879 458.545 483.175 458.458C488.194 457.483 489.482 452.064 491.465 448.088C492.248 446.514 495.449 445.687 498.277 446.018C499.912 447.758 498.39 449.106 498.277 451.35C498.642 452.464 499.625 452.968 500.347 453.717C498.703 455.317 501.417 456.996 501.217 457.857C504.427 460.893 502.8 470.419 500.643 474.194Z" fill="#9D9FA2"></path><path fill-rule="evenodd" clip-rule="evenodd" d="M425.719 349.815C420.656 347.023 419.046 342.421 422.752 336.767C424.17 334.627 427.745 332.608 430.451 330.26C436.096 325.353 439.541 323.066 445.857 317.524C447.805 315.784 452.372 311.644 451.772 309.53C450.746 305.807 441.203 309.138 438.454 308.042C437.53 307.658 436.748 306.996 436.217 306.149C435.686 305.301 435.431 304.309 435.488 303.31C435.844 300.813 438.341 299.161 439.637 297.09C444.769 288.861 448.336 277.952 454.147 270.428C451.006 271.576 449.554 274.873 447.04 277.543C444.996 279.718 442.099 281.327 440.228 283.763C438.358 286.199 438.097 290.122 434.896 291.462C426.441 291.462 418.168 290.992 419.499 280.501C420.143 275.473 423.848 269.497 426.31 264.512C433.522 249.793 443.769 233.874 450.302 220.086C445.751 221.713 441.748 224.586 438.75 228.376C426.119 243.774 410.678 259.954 412.653 287.312C410.104 290.192 410.417 294.62 409.686 298.865C406.537 301.057 400.118 300.204 398.447 297.386C396.899 294.846 397.577 287.747 397.256 284.05C396.847 279.936 395.855 275.821 395.472 271.619C392.863 242.408 396.168 212.222 400.813 189.587C397.673 193.554 393.854 198.286 391.627 203.201C390.244 206.22 390.331 209.665 389.253 212.979C388.383 215.771 386.408 218.198 385.112 220.973C382.163 227.332 381.128 235.649 379.779 243.487C378.248 252.342 375.682 263.146 377.413 271.028C378.379 275.377 381.858 279.866 381.85 283.467C381.85 285.546 380.554 288.435 378.301 288.8C373.438 289.557 370.515 280.814 369.123 276.952C367.349 271.989 365.272 267.141 362.903 262.433C358.015 252.725 353.848 243.774 347.802 236.084C350.081 250.237 355.501 267.183 359.346 281.693C361.181 288.609 362.451 293.28 363.199 300.935C363.693 304.77 364.585 308.542 365.861 312.192C366.948 315.428 370.211 318.69 370.002 321.665C369.628 328.459 363.965 324.275 361.12 321.961C355.942 317.544 350.395 313.58 344.54 310.113C348.176 317.672 354.831 324.388 360.824 331.443C362.564 333.461 365.322 335.836 365.565 339.141C365.861 343.247 362.956 349.224 360.529 349.502C358.102 349.78 354.77 346.666 352.543 344.77C350.038 342.638 347.237 341.081 345.427 339.437C334.554 329.538 327.455 316.506 319.957 302.718C318.513 300.048 316.077 296.429 316.112 294.124C316.146 291.819 318.304 288.243 319.661 285.834C322.479 280.849 326.307 278.657 330.326 283.172C332.066 285.112 333.805 286.147 333.875 289.391C339.842 294.872 344.314 301.84 351.943 305.676C342.069 278.631 327.977 240.077 330.917 201.435C331.196 197.669 331.787 193.893 333.283 191.066C335.197 187.447 339.99 181.497 345.723 183.367C349.811 184.69 350.942 192.484 352.543 197.286C357.693 213.196 363.469 227.985 371.481 240.52C373.143 231.881 375.422 223.372 378.301 215.058C381.058 207.159 383.311 199.078 387.478 191.953C393.802 181.167 398.395 170.963 404.954 160.854C406.007 159.236 407.225 157.836 408.208 156.113C409.947 153.06 410.391 149.415 413.549 147.527C417.611 145.092 428.337 144.048 429.207 149.267C429.59 151.433 427.615 157.157 426.832 160.228C422.335 177.843 419.977 196.886 417.95 216.493C416.837 227.185 415.149 234.953 414.984 245.818C417.498 241.32 421.943 237.989 425.345 233.639C428.12 230.16 430.303 226.358 433.643 223.279C441.412 216.102 450.58 208.838 459.114 201.949C460.932 200.487 462.272 198.591 463.855 197.512C466.225 196.013 468.94 195.146 471.74 194.994C474.541 194.842 477.333 195.409 479.852 196.642C479.513 203.201 476.312 208.647 473.615 213.814C468.257 224.157 463.907 234.788 458.522 245.505C455.956 250.62 452.52 255.7 451.415 261.789C459.653 258.701 467.943 245.261 479.252 251.429C477.512 260.18 472.075 266.487 467.708 273.046C465.542 276.291 463.307 279.683 461.184 283.119C457.783 288.643 454.225 293.236 451.702 299.996C455.626 300.222 457.548 294.828 462.968 292.889C464.307 292.41 466.978 292.506 469.483 292.019C474.024 291.096 480.409 288.113 481.662 293.497C482.131 295.55 480.4 298.204 479 298.83C472.345 307.251 465.568 316.593 457.974 325.188C455.539 327.946 453.173 331.147 450.572 333.478C443.186 340.133 433.922 343.908 425.719 349.815Z" fill="#9D9FA2"></path><path fill-rule="evenodd" clip-rule="evenodd" d="M498.277 377.652C499.721 377.652 499.147 375.564 500.347 375.286C505.819 377.4 502.087 386.743 505.671 389.787C505.574 390.711 505.256 391.598 504.742 392.372C504.229 393.146 503.535 393.784 502.722 394.233C498.807 392.023 497.502 387.23 494.423 384.159C495.771 384.794 493.918 383.768 494.719 383.289C493.962 386.099 492.327 381.367 492.057 381.21C490.204 380.123 488.055 381.819 486.124 380.619C484.758 378.191 484.732 376.052 484.384 372.92C489.517 369.649 497.676 376.226 498.277 377.652Z" fill="#9D9FA2"></path><path fill-rule="evenodd" clip-rule="evenodd" d="M346.054 381.497C345.245 384.446 348.716 385.847 346.654 388.309C348.994 387.847 350.134 384.272 354.936 385.351C355.012 385.549 355.129 385.728 355.278 385.878C355.428 386.028 355.608 386.145 355.806 386.221C356.005 387.85 355.702 389.501 354.936 390.953C355.553 391.866 357.145 390.266 357.902 391.257C358.12 396.051 360.512 400.513 364.122 402.81C367.097 401.635 371.081 403.045 371.516 405.176C371.76 406.376 370.49 407.507 369.159 409.621C367.506 412.231 367.097 414.301 365.305 416.128C362.034 419.495 358.729 420.956 354.64 422.052C353.909 422.313 353.77 423.157 353.161 423.531C350.952 423.14 350.612 423.748 349.02 424.401C343.757 424.236 339.843 422.713 336.842 420.251C338.938 426.254 346.115 427.211 347.498 433.874C344.61 436.614 337.851 435.475 337.433 440.686C335.765 441.351 334.325 442.484 333.284 443.948C325.82 446.871 316.756 444.33 313.154 439.798C312.884 439.041 312.78 438.234 312.85 437.432C311.11 436.136 310.979 432.648 313.72 432.395C313.537 431.195 312.702 430.656 312.85 429.142C309.422 430.525 306.578 432.682 302.785 432.691C295.974 432.691 291.154 426.019 287.379 422.626C288.336 418.32 284.839 418.451 285.013 414.919C284.36 413.997 282.951 413.823 282.342 412.849C282.186 410.413 283.116 409.073 283.83 407.516C288.258 406.028 290.876 402.723 293.007 398.93C290.902 397.582 286.996 398.06 286.205 395.381C286.718 394.702 287.074 393.867 288.275 393.893C287.788 387.978 292.259 383.55 298.931 384.716C299.097 388.282 303.35 385.986 305.751 387.378C306.065 387.916 306.167 388.552 306.038 389.161C308.204 390.257 309.936 391.771 309.892 395.076C312.648 399.845 316.145 404.144 320.253 407.812C321.281 407.631 322.339 407.842 323.219 408.403C323.967 414.815 317.043 416.032 317.295 422.913C316.564 424.157 315.172 424.749 314.633 426.176C315.903 427.593 317.886 425.793 319.07 425.306C319.339 421.522 321.679 419.816 322.915 417.015C324.889 417.398 325.098 416.024 325.881 415.232C328.865 415.162 331.387 414.623 332.988 413.162C333.084 410.691 330.778 410.639 330.022 409.012C331.031 407.76 330.335 406.107 330.326 404.28C332.41 404.293 334.471 403.853 336.368 402.991C338.265 402.129 339.952 400.865 341.313 399.287C340.982 395.198 344.445 392.615 345.758 389.222C344.445 388.604 342.888 390.292 341.017 390.092C340.608 389.7 340.73 388.804 340.722 388.013C336.846 383.95 334.091 378.95 332.727 373.503C338.294 372.763 341.87 378.905 346.054 381.497Z" fill="#9D9FA2"></path><path fill-rule="evenodd" clip-rule="evenodd" d="M476.956 470.941C477.069 473.29 477.886 473.759 477.243 476.569C479.852 477.709 484.698 479.179 483.462 482.78C486.551 484.207 488.952 487.052 487.02 491.079H485.542C486.977 494.689 485.176 497.882 484.672 500.265C483.985 500.266 483.308 500.423 482.692 500.724C482.075 501.026 481.536 501.464 481.114 502.005C472.815 500.439 467.387 495.994 463.054 490.462C463.846 487.852 463.637 487.295 463.35 484.242C464.281 483.372 465.255 483.763 465.716 483.372C467.108 482.154 465.508 480.014 465.716 478.039C465.89 476.413 467.395 475.63 467.456 473.899C468.152 473.803 468.57 473.429 469.535 473.603C470.083 470.776 473.432 470.776 476.956 470.941Z" fill="#9D9FA2"></path><path fill-rule="evenodd" clip-rule="evenodd" d="M165.033 691.611C135.898 668.105 110.357 640.322 89.3662 609.215C178.901 571.743 285.534 549.998 399.996 549.998C514.459 549.998 621.097 571.742 710.639 609.212C689.646 640.321 664.102 668.105 634.964 691.612C563.25 670.7 483.72 659.067 399.996 659.067C316.278 659.067 236.749 670.7 165.033 691.611Z" fill="currentColor"></path><path fill-rule="evenodd" clip-rule="evenodd" d="M629.89 695.633C558.057 675.11 479.833 664.269 399.996 664.269C320.157 664.269 241.941 675.11 170.111 695.635C166.774 693.037 163.483 690.384 160.238 687.677C234.923 665.563 316.609 653.865 399.996 653.865C483.388 653.865 565.077 665.563 639.762 687.675C636.517 690.382 633.226 693.035 629.89 695.633ZM713.434 605.009C623.027 566.921 515.397 544.796 399.996 544.796C284.597 544.796 176.971 566.92 86.5679 605.007C88.4768 607.92 90.4252 610.804 92.4124 613.66C181.142 576.674 286.754 555.191 399.996 555.191C513.237 555.191 618.855 576.673 707.593 613.657C709.579 610.803 711.526 607.92 713.434 605.009Z" fill="#9D9FA2"></path><path d="M262.491 631.056L261.334 622.357L271.451 621L272.634 629.881C273.113 633.509 275.018 635.397 278.724 634.901C282.203 634.44 283.378 631.943 282.925 628.507L282.595 626.028C282.099 622.304 280.263 620.217 276.505 617.511L269.259 611.97C262.248 606.69 258.881 603.349 257.898 595.903L257.602 593.702C256.532 585.69 260.386 578.861 270.981 577.452C281.864 576.008 286.866 580.775 288.11 590.135L288.806 595.355L278.898 596.755L278.149 591.127C277.654 587.404 275.696 585.821 272.26 586.273C269.207 586.682 267.337 588.674 267.815 592.301L267.998 593.641C268.476 597.269 270.764 599.104 274.313 601.731L282.195 607.681C288.919 612.901 292.268 616.146 293.216 623.34L293.634 626.489C294.817 635.37 290.885 642.304 279.811 643.774C268.737 645.244 263.622 639.546 262.491 631.056Z" fill="#9D9FA2"></path><path d="M312.745 573.685L323.689 572.815L328.751 637.902L317.808 638.772L312.745 573.685Z" fill="#9D9FA2"></path><path d="M349.811 571.293L360.789 570.954L362.529 627.254L375.578 626.854L375.856 635.797L351.786 636.536L349.811 571.293Z" fill="#9D9FA2"></path><path d="M428.155 571.145L414.34 636.127L402.405 635.866L391.392 570.354L402.562 570.597L409.086 616.276H409.182L417.881 570.928L428.155 571.145Z" fill="#9D9FA2"></path><path d="M452.729 572.502L478.826 574.529L478.13 583.454L462.967 582.28L461.515 600.896L472.362 601.766L471.675 610.595L460.827 609.725L459.305 629.507L474.476 630.681L473.789 639.598L447.692 637.571L452.729 572.502Z" fill="#9D9FA2"></path><path d="M510.942 613.684L507.019 643.374L496.137 641.93L504.697 577.217L520.546 579.357C531.516 580.81 534.804 586.786 533.595 595.885L532.499 604.184C531.577 611.144 528.549 614.928 522.164 615.493L528.671 646.27L517.223 644.748L510.942 613.684ZM514.422 587.534L511.76 607.673L515.379 608.151C519.111 608.638 520.981 606.951 521.468 603.515L522.73 593.946C523.199 590.414 521.808 588.483 518.084 587.987L514.422 587.534Z" fill="#9D9FA2"></path></symbol></defs><use xlink:href="#icons-pineapple-support" fill="#FFFFFF"></use></svg>