<svg width="66" height="25" viewBox="0 0 66 25" fill="none" xmlns="http://www.w3.org/2000/svg">
<path fill-rule="evenodd" clip-rule="evenodd" d="M5 11.7L4.2 14H0L5.3 0H9.6L13.8 11.4H20C20.8 11.4 21.7 11 21.7 10C21.7 9 21 8.8 19.9 8.4C18.9 8.2 13.9 7.6 13.9 4C13.9 0.8 17.1 0 18.9 0H34.9L38.9 11.2H40.6C40.6 11.2 39.6 9.9 39.6 6.7C39.6 3.5 41.8 0.2 44.6 0.2H60.4C62 0.2 66 0 66 4.2C66 8.8 62.2 9 61 9H58.8V14H54.8V3.3H46.5C45.7 3.3 43.7 3.6 43.7 6.7C43.7 9.7 44.9 11.3 46.4 11.3C47.8 11.3 48.6 10.3 48.9 9.7L49.1 8.4L52.7 9.4C52.7 9.4 52 14 47.3 14H36L35 11.7H30.3L29.6 13.9H25.4L29.7 2.4H19.7C18.7 2.4 17.7 2.2 17.7 3.4C17.7 4.4 19 4.4 21.9 5.4C24.9 6.4 25.6 7.4 25.6 9.6C25.6 11.6 23.9 13.8 21.2 13.8H10.6L9.8 11.5H5V11.7ZM6 8.7H9L7.3 3.7L5.9 8.7H6ZM31.3 8.7H34.3L32.7 3.7L31.3 8.7ZM58.8 3H60C61 3 62 3.2 62 4.4C62 6 60.5 6 60 6H58.7V3H58.8ZM2.7 22.3L2.2 19.8L1.6 22.3H2.6H2.7ZM2.7 18.8L4.3 24.4H3V23.2H1.3L1.1 24.4H0L1.5 18.8H2.8H2.7ZM6.1 21.3V19.7H6.6C6.9 19.7 7.1 19.7 7.2 19.9C7.4 19.9 7.5 20.1 7.5 20.4C7.5 20.7 7.5 20.9 7.3 21C7.3 21.3 7.1 21.3 6.9 21.3H6H6.1ZM5.1 18.8V24.4H6.1V22.2H7.5L8 21.8L8.3 21.2V20.5V19.9C8.3 19.6 8.3 19.4 8.1 19.3C8.1 19.1 7.9 19 7.7 18.9L7 18.7H5L5.1 18.8ZM10.4 21.3V19.7H10.9C11.2 19.7 11.4 19.7 11.5 19.9C11.5 19.9 11.7 20.1 11.7 20.4C11.7 20.7 11.7 20.9 11.5 21C11.3 21.3 11.2 21.3 10.9 21.3H10.4ZM9.4 18.8V24.4H10.4V22.2H11.6L12.1 21.8L12.5 21.2V20.5V19.9C12.5 19.6 12.5 19.4 12.3 19.3C12.3 19.1 12 19 11.8 18.9L11 18.7H9L9.4 18.8ZM13.6 18.8V24.4H14.6V22H15.3C15.6 22 15.7 22 15.8 22.2L16 22.7V24.5H17.3L17 24V23.3V22.9V22.5C17 22.2 17 22 16.7 21.8C16.7 21.6 16.4 21.5 16.1 21.4C16.5 21.4 16.8 21.2 16.9 21C17.1 20.7 17.1 20.4 17.1 20C17.1 19.6 17.1 19.2 16.8 19C16.5 18.8 16.1 18.6 15.8 18.6H13.6V18.8ZM14.6 21.3V19.7H15.3C15.8 19.7 16 19.9 16 20.4C16 20.7 16 20.9 15.7 21.1C15.7 21.3 15.4 21.4 15.1 21.4H14.7L14.6 21.3ZM19.2 21.6V20.6L19.4 20C19.4 20 19.4 19.7 19.6 19.7H20.4L20.7 20V23.2C20.7 23.4 20.5 23.5 20.4 23.5L20 23.7C20 23.7 19.7 23.7 19.6 23.5L19.4 23.2V22.6V21.6H19.2ZM18.2 21.6V22.8C18.2 23.1 18.2 23.4 18.5 23.8L19 24.3L20 24.5C20.5 24.5 20.8 24.5 21 24.3L21.6 23.7L21.9 22.7V21.7V20.4L21.6 19.4L21 18.9C20.8 18.7 20.5 18.6 20 18.6C19.6 18.6 19.3 18.6 19 18.8C18.8 18.8 18.6 19.1 18.5 19.3C18.3 19.6 18.3 19.9 18.2 20.3V21.3V21.6ZM23.7 18.8H22.5L23.8 24.4H25L26.3 18.8H25L24.3 22.8L23.5 18.8H23.7ZM30.2 18.8H27.2V24.4H30.2V23.4H28.2V22H30.2V21H28.2V20H30.2V19V18.8ZM32.2 23.5V19.7H33.3L33.6 20.1L33.8 20.8V22.6C33.8 22.9 33.8 23.1 33.6 23.2C33.6 23.5 33.6 23.6 33.3 23.6H32L32.2 23.5ZM31.2 18.8V24.4H32.9C33.3 24.4 33.6 24.4 33.9 24.2C34.1 24.2 34.3 23.9 34.4 23.7C34.6 23.4 34.7 23.2 34.7 22.7V21.5V20.5C34.7 20.1 34.7 19.8 34.5 19.5C34.5 19.3 34.2 19.2 33.9 19L32.9 18.8H31H31.2ZM38 18.8V24.4H39V20L40 24.4H40.8L41.8 20V24.4H42.8V18.8H41L40.2 22.8L39.4 18.8H37.8H38ZM47 18.8H44V24.4H47V23.4H45V22H47V21H45V20H47V19V18.8ZM48 18.8V24.4H49V20L50 24.4H50.8L51.8 20V24.4H52.8V18.8H51L50.2 22.8L49.4 18.8H47.7H48ZM55 23.5V22H56V23.4H54.7L55 23.5ZM55 21.1V19.8H56C56.2 20 56.2 20.2 56.2 20.5C56.2 20.7 56.2 20.9 56 21H55V21.1ZM54 18.9V24.5H55.8C56.1 24.5 56.4 24.5 56.6 24.3C56.8 24.3 57 24.1 57.1 24L57.3 23.4V22.8C57.3 22.4 57.3 22.1 57.1 21.8C57.1 21.6 56.7 21.5 56.4 21.5C56.7 21.5 56.9 21.2 57 21V20.2V19.6C57 19.4 56.8 19.2 56.7 19.1H56.2L55.6 18.9H53.6H54ZM61.6 18.9H58.6V24.5H61.6V23.5H59.6V22H61.4V21H59.6V20H61.6V19V18.9ZM62.6 18.9V24.5H63.6V22H64.2C64.4 22 64.6 22 64.7 22.2V22.7L64.9 23.7V24.5H66L65.8 24.1V23.4V23V22.6C65.8 22.3 65.6 22.1 65.5 21.9L64.9 21.5C65.1 21.5 65.3 21.3 65.5 21.1L65.7 20.1C65.7 19.7 65.7 19.3 65.3 19.1C65 18.9 64.7 18.7 64.3 18.7H62.3L62.6 18.9ZM63.6 21.4V19.8H64.1C64.5 19.8 64.8 20 64.8 20.5C64.8 20.8 64.8 21 64.6 21.2C64.4 21.4 64.2 21.5 63.9 21.5H63.5L63.6 21.4Z" fill="#909091"/>
</svg>
